<?xml version="1.0" encoding="UTF-8" standalone="no"?>
<svg
   xmlns:dc="http://purl.org/dc/elements/1.1/"
   xmlns:cc="http://creativecommons.org/ns#"
   xmlns:rdf="http://www.w3.org/1999/02/22-rdf-syntax-ns#"
   xmlns:svg="http://www.w3.org/2000/svg"
   xmlns="http://www.w3.org/2000/svg"
   viewBox="0 0 666.66669 666.66669"
   height="666.66669"
   width="666.66669"
   xml:space="preserve"
   id="svg2"
   version="1.1"><metadata
     id="metadata8"><rdf:RDF><cc:Work
         rdf:about=""><dc:format>image/svg+xml</dc:format><dc:type
           rdf:resource="http://purl.org/dc/dcmitype/StillImage" /></cc:Work></rdf:RDF></metadata><defs
     id="defs6"><clipPath
       id="clipPath32"
       clipPathUnits="userSpaceOnUse"><path
         id="path30"
         d="M 0,500 H 500 V 0 H 0 Z" /></clipPath><clipPath
       id="clipPath132"
       clipPathUnits="userSpaceOnUse"><path
         id="path130"
         d="M 0,500 H 500 V 0 H 0 Z" /></clipPath><clipPath
       id="clipPath144"
       clipPathUnits="userSpaceOnUse"><path
         id="path142"
         d="M 64.4489,427.684 H 415.068 V 157.498 H 64.4489 Z" /></clipPath><clipPath
       id="clipPath160"
       clipPathUnits="userSpaceOnUse"><path
         id="path158"
         d="M 0,500 H 500 V 0 H 0 Z" /></clipPath><clipPath
       id="clipPath172"
       clipPathUnits="userSpaceOnUse"><path
         id="path170"
         d="M 0,500 H 500 V 0 H 0 Z" /></clipPath><clipPath
       id="clipPath184"
       clipPathUnits="userSpaceOnUse"><path
         id="path182"
         d="m 383.989,150.179 h 32.79 v -17.086 h -32.79 z" /></clipPath><clipPath
       id="clipPath206"
       clipPathUnits="userSpaceOnUse"><path
         id="path204"
         d="m 378.065,135.505 h 43.472 v -4.825 h -43.472 z" /></clipPath><clipPath
       id="clipPath228"
       clipPathUnits="userSpaceOnUse"><path
         id="path226"
         d="m 350.96,128.78 h 18.719 V 110.266 H 350.96 Z" /></clipPath><clipPath
       id="clipPath248"
       clipPathUnits="userSpaceOnUse"><path
         id="path246"
         d="M 302.539,119.353 H 424.667 V 83.3493 H 302.539 Z" /></clipPath><clipPath
       id="clipPath268"
       clipPathUnits="userSpaceOnUse"><path
         id="path266"
         d="m 329.66,115.169 h 11.09 V 85.2649 h -11.09 z" /></clipPath><clipPath
       id="clipPath284"
       clipPathUnits="userSpaceOnUse"><path
         id="path282"
         d="m 304.34,115.679 h 6.72 V 93.2593 h -6.72 z" /></clipPath><clipPath
       id="clipPath300"
       clipPathUnits="userSpaceOnUse"><path
         id="path298"
         d="M 308.559,119.759 H 334.63 V 100.841 H 308.559 Z" /></clipPath><clipPath
       id="clipPath316"
       clipPathUnits="userSpaceOnUse"><path
         id="path314"
         d="m 309.39,88.9893 h 21.27 v -5.64 h -21.27 z" /></clipPath><clipPath
       id="clipPath332"
       clipPathUnits="userSpaceOnUse"><path
         id="path330"
         d="m 304.34,119.699 h 36.41 V 86.2593 h -36.41 z" /></clipPath><clipPath
       id="clipPath396"
       clipPathUnits="userSpaceOnUse"><path
         id="path394"
         d="M 0,500 H 500 V 0 H 0 Z" /></clipPath><clipPath
       id="clipPath412"
       clipPathUnits="userSpaceOnUse"><path
         id="path410"
         d="M 60.08,91.398 H 95.3077 V 83.3493 H 60.08 Z" /></clipPath><clipPath
       id="clipPath432"
       clipPathUnits="userSpaceOnUse"><path
         id="path430"
         d="M 80.9767,131.199 H 164.62 V 83.35 H 80.9767 Z" /></clipPath><clipPath
       id="clipPath448"
       clipPathUnits="userSpaceOnUse"><path
         id="path446"
         d="M 80.9767,128.225 H 163.4 V 83.62 H 80.9767 Z" /></clipPath><clipPath
       id="clipPath464"
       clipPathUnits="userSpaceOnUse"><path
         id="path462"
         d="m 105.91,131.15 h 51.408 V 104.64 H 105.91 Z" /></clipPath><clipPath
       id="clipPath484"
       clipPathUnits="userSpaceOnUse"><path
         id="path482"
         d="M 60.08,113.356 H 92.3407 V 83.3493 H 60.08 Z" /></clipPath><clipPath
       id="clipPath500"
       clipPathUnits="userSpaceOnUse"><path
         id="path498"
         d="M 0,500 H 500 V 0 H 0 Z" /></clipPath><clipPath
       id="clipPath516"
       clipPathUnits="userSpaceOnUse"><path
         id="path514"
         d="m 118.24,355.89 h 32.768 V 319.28 H 118.24 Z" /></clipPath><clipPath
       id="clipPath532"
       clipPathUnits="userSpaceOnUse"><path
         id="path530"
         d="m 131.49,340.34 h 19.518 V 319.28 H 131.49 Z" /></clipPath><clipPath
       id="clipPath548"
       clipPathUnits="userSpaceOnUse"><path
         id="path546"
         d="m 121.93,353.61 h 20.235 V 329.14 H 121.93 Z" /></clipPath><clipPath
       id="clipPath588"
       clipPathUnits="userSpaceOnUse"><path
         id="path586"
         d="m 151.91,206.3 h 18.05 v -25.28 h -18.05 z" /></clipPath><clipPath
       id="clipPath604"
       clipPathUnits="userSpaceOnUse"><path
         id="path602"
         d="m 182.22,202.23 h 18.9 v -23.95 h -18.9 z" /></clipPath><clipPath
       id="clipPath632"
       clipPathUnits="userSpaceOnUse"><path
         id="path630"
         d="m 147.855,267.296 h 55.02 v -79.571 h -55.02 z" /></clipPath><clipPath
       id="clipPath652"
       clipPathUnits="userSpaceOnUse"><path
         id="path650"
         d="m 162.823,353.382 h 10.626 v -3.789 h -10.626 z" /></clipPath><clipPath
       id="clipPath680"
       clipPathUnits="userSpaceOnUse"><path
         id="path678"
         d="m 160.051,246.258 h 15.075 v -56.317 h -15.075 z" /></clipPath><clipPath
       id="clipPath708"
       clipPathUnits="userSpaceOnUse"><path
         id="path706"
         d="m 153.371,349.593 h 22.677 v -6.185 h -22.677 z" /></clipPath><clipPath
       id="clipPath732"
       clipPathUnits="userSpaceOnUse"><path
         id="path730"
         d="m 102.53,346.96 h 93.374 V 272.04 H 102.53 Z" /></clipPath><clipPath
       id="clipPath748"
       clipPathUnits="userSpaceOnUse"><path
         id="path746"
         d="m 102.52,346.08 h 93.36 v -67.37 h -93.36 z" /></clipPath><clipPath
       id="clipPath816"
       clipPathUnits="userSpaceOnUse"><path
         id="path814"
         d="m 190.102,329.81 h 5.802 v -21.14 h -5.802 z" /></clipPath><clipPath
       id="clipPath840"
       clipPathUnits="userSpaceOnUse"><path
         id="path838"
         d="m 146.3,390.77 h 24.184 V 366.866 H 146.3 Z" /></clipPath><clipPath
       id="clipPath856"
       clipPathUnits="userSpaceOnUse"><path
         id="path854"
         d="m 149.14,385.9 h 21.344 V 366.866 H 149.14 Z" /></clipPath><clipPath
       id="clipPath876"
       clipPathUnits="userSpaceOnUse"><path
         id="path874"
         d="m 186.98,358.18 h 32.77 v -36.61 h -32.77 z" /></clipPath><clipPath
       id="clipPath892"
       clipPathUnits="userSpaceOnUse"><path
         id="path890"
         d="M 186.98,356.86 H 213.2 V 323.81 H 186.98 Z" /></clipPath><clipPath
       id="clipPath924"
       clipPathUnits="userSpaceOnUse"><path
         id="path922"
         d="M 0,500 H 500 V 0 H 0 Z" /></clipPath><clipPath
       id="clipPath936"
       clipPathUnits="userSpaceOnUse"><path
         id="path934"
         d="m 241.409,91.6168 h 8.111 v -8.1114 h -8.111 z" /></clipPath><clipPath
       id="clipPath956"
       clipPathUnits="userSpaceOnUse"><path
         id="path954"
         d="m 230.491,92.472 h 8.111 v -8.1114 h -8.111 z" /></clipPath><clipPath
       id="clipPath976"
       clipPathUnits="userSpaceOnUse"><path
         id="path974"
         d="m 238.264,189.923 h 20.505 V 89.8937 h -20.505 z" /></clipPath><clipPath
       id="clipPath996"
       clipPathUnits="userSpaceOnUse"><path
         id="path994"
         d="m 245.288,243.474 h 17.105 v -6.242 h -17.105 z" /></clipPath><clipPath
       id="clipPath1012"
       clipPathUnits="userSpaceOnUse"><path
         id="path1010"
         d="m 245.288,243.474 h 5.187 v -5.308 h -5.187 z" /></clipPath><clipPath
       id="clipPath1032"
       clipPathUnits="userSpaceOnUse"><path
         id="path1030"
         d="m 240.073,187.905 h 47.484 V 89.1622 h -47.484 z" /></clipPath><clipPath
       id="clipPath1048"
       clipPathUnits="userSpaceOnUse"><path
         id="path1046"
         d="M 240.068,187.902 H 266.22 V 90.6 h -26.152 z" /></clipPath><clipPath
       id="clipPath1064"
       clipPathUnits="userSpaceOnUse"><path
         id="path1062"
         d="m 257.542,183.661 h 9.422 V 94.8408 h -9.422 z" /></clipPath><clipPath
       id="clipPath1080"
       clipPathUnits="userSpaceOnUse"><path
         id="path1078"
         d="m 263.745,182.741 h 9.422 V 93.9209 h -9.422 z" /></clipPath><clipPath
       id="clipPath1096"
       clipPathUnits="userSpaceOnUse"><path
         id="path1094"
         d="m 269.949,182.379 h 9.422 V 93.558 h -9.422 z" /></clipPath><clipPath
       id="clipPath1112"
       clipPathUnits="userSpaceOnUse"><path
         id="path1110"
         d="m 276.152,182.016 h 9.423 V 93.195 h -9.423 z" /></clipPath></defs><g
     transform="matrix(1.3333333,0,0,-1.3333333,0,666.66667)"
     id="g10"><path
       id="path12"
       style="fill:#ececec;fill-opacity:1;fill-rule:nonzero;stroke:none"
       d="m 0,117.352 h 500 v 0.249 H 0 Z" /><path
       id="path14"
       style="fill:#ececec;fill-opacity:1;fill-rule:nonzero;stroke:none"
       d="m 416.779,101.256 h 33.122 v 0.249 h -33.122 z" /><path
       id="path16"
       style="fill:#ececec;fill-opacity:1;fill-rule:nonzero;stroke:none"
       d="m 322.527,98.542 h 8.693 v 0.25 h -8.693 z" /><path
       id="path18"
       style="fill:#ececec;fill-opacity:1;fill-rule:nonzero;stroke:none"
       d="m 396.586,110.542 h 19.192 v 0.25 h -19.192 z" /><path
       id="path20"
       style="fill:#ececec;fill-opacity:1;fill-rule:nonzero;stroke:none"
       d="m 52.459,108.861 h 43.193 v 0.25 H 52.459 Z" /><path
       id="path22"
       style="fill:#ececec;fill-opacity:1;fill-rule:nonzero;stroke:none"
       d="m 104.556,108.861 h 6.333 v 0.25 h -6.333 z" /><path
       id="path24"
       style="fill:#ececec;fill-opacity:1;fill-rule:nonzero;stroke:none"
       d="m 131.471,104.639 h 93.676 v 0.25 h -93.676 z" /><g
       id="g26"><g
         clip-path="url(#clipPath32)"
         id="g28"><g
           transform="translate(43.915,444.7974)"
           id="g34"><path
             id="path36"
             style="fill:#ececec;fill-opacity:1;fill-rule:nonzero;stroke:none"
             d="m 0,0 c -3.01,0 -5.458,-2.448 -5.458,-5.458 v -271.431 c 0,-3.01 2.448,-5.458 5.458,-5.458 h 193.099 c 3.008,0 5.457,2.448 5.457,5.458 V -5.458 c 0,3.01 -2.449,5.458 -5.457,5.458 z M 193.099,-282.597 H 0 c -3.147,0 -5.708,2.56 -5.708,5.708 V -5.458 c 0,3.147 2.561,5.708 5.708,5.708 h 193.099 c 3.146,0 5.707,-2.561 5.707,-5.708 v -271.431 c 0,-3.148 -2.561,-5.708 -5.707,-5.708" /></g><g
           transform="translate(260.2119,444.7974)"
           id="g38"><path
             id="path40"
             style="fill:#ececec;fill-opacity:1;fill-rule:nonzero;stroke:none"
             d="m 0,0 c -3.009,0 -5.457,-2.448 -5.457,-5.458 v -271.431 c 0,-3.01 2.448,-5.458 5.457,-5.458 h 193.099 c 3.009,0 5.458,2.448 5.458,5.458 V -5.458 c 0,3.01 -2.449,5.458 -5.458,5.458 z M 193.099,-282.597 H 0 c -3.146,0 -5.707,2.56 -5.707,5.708 V -5.458 c 0,3.147 2.561,5.708 5.707,5.708 h 193.099 c 3.147,0 5.708,-2.561 5.708,-5.708 v -271.431 c 0,-3.148 -2.561,-5.708 -5.708,-5.708" /></g><g
           transform="translate(376.9409,351.7109)"
           id="g42"><path
             id="path44"
             style="fill:#f5f5f5;fill-opacity:1;fill-rule:nonzero;stroke:none"
             d="m 0,0 c 0,-22.945 -18.601,-41.546 -41.546,-41.546 -22.945,0 -41.546,18.601 -41.546,41.546 0,22.945 18.601,41.546 41.546,41.546 C -18.601,41.546 0,22.945 0,0" /></g><g
           transform="translate(409.5464,359.9014)"
           id="g46"><path
             id="path48"
             style="fill:#ececec;fill-opacity:1;fill-rule:nonzero;stroke:none"
             d="m 0,0 c 0,3.737 -3.03,6.767 -6.767,6.767 -0.676,0 -1.327,-0.102 -1.943,-0.286 0.098,0.679 0.151,1.372 0.151,2.078 0,7.914 -6.416,14.33 -14.33,14.33 -0.902,0 -1.783,-0.087 -2.639,-0.247 -2.203,3.605 -6.162,6.019 -10.696,6.019 -6.861,0 -12.428,-5.514 -12.529,-12.35 -0.071,0.001 -0.139,0.01 -0.209,0.01 -6.376,0 -11.544,-5.169 -11.544,-11.544 0,-6.376 5.168,-11.544 11.544,-11.544 h 42.394 l -0.009,0.01 C -2.928,-6.656 0,-3.673 0,0" /></g><g
           transform="translate(302.6133,322.6602)"
           id="g50"><path
             id="path52"
             style="fill:#ececec;fill-opacity:1;fill-rule:nonzero;stroke:none"
             d="m 0,0 c 0,3.737 -3.03,6.768 -6.767,6.768 -0.676,0 -1.327,-0.102 -1.943,-0.287 0.099,0.679 0.152,1.372 0.152,2.078 0,7.914 -6.417,14.33 -14.331,14.33 -0.902,0 -1.783,-0.087 -2.639,-0.247 -2.203,3.605 -6.162,6.019 -10.696,6.019 -6.861,0 -12.428,-5.513 -12.529,-12.35 -0.071,0.001 -0.139,0.01 -0.209,0.01 -6.376,0 -11.544,-5.169 -11.544,-11.544 0,-6.376 5.168,-11.544 11.544,-11.544 h 42.394 l -0.009,0.01 C -2.928,-6.656 0,-3.673 0,0" /></g><g
           transform="translate(115.9536,309.8545)"
           id="g54"><path
             id="path56"
             style="fill:#ececec;fill-opacity:1;fill-rule:nonzero;stroke:none"
             d="m 0,0 c 0,3.737 -3.03,6.767 -6.767,6.767 -0.676,0 -1.327,-0.102 -1.943,-0.287 0.098,0.679 0.151,1.373 0.151,2.078 0,7.915 -6.416,14.331 -14.33,14.331 -0.902,0 -1.784,-0.088 -2.64,-0.247 -2.202,3.605 -6.161,6.019 -10.695,6.019 -6.862,0 -12.428,-5.514 -12.529,-12.351 -0.071,0.002 -0.139,0.011 -0.209,0.011 -6.376,0 -11.544,-5.169 -11.544,-11.544 0,-6.376 5.168,-11.544 11.544,-11.544 h 42.394 l -0.009,0.009 C -2.928,-6.656 0,-3.673 0,0" /></g><g
           transform="translate(405.6357,277.564)"
           id="g58"><path
             id="path60"
             style="fill:#ececec;fill-opacity:1;fill-rule:nonzero;stroke:none"
             d="m 0,0 c 0,2.259 -1.831,4.09 -4.09,4.09 -0.409,0 -0.802,-0.062 -1.175,-0.173 0.06,0.41 0.092,0.829 0.092,1.256 0,4.783 -3.878,8.661 -8.661,8.661 -0.545,0 -1.078,-0.053 -1.596,-0.149 -1.331,2.179 -3.724,3.638 -6.464,3.638 -4.148,0 -7.512,-3.332 -7.573,-7.465 -0.043,10e-4 -0.084,0.006 -0.126,0.006 -3.854,0 -6.977,-3.123 -6.977,-6.977 0,-3.853 3.123,-6.977 6.977,-6.977 H -3.97 l -0.005,0.006 C -1.77,-4.023 0,-2.22 0,0" /></g><g
           transform="translate(158.4302,409.0854)"
           id="g62"><path
             id="path64"
             style="fill:#ececec;fill-opacity:1;fill-rule:nonzero;stroke:none"
             d="m 0,0 c 0,2.259 -1.831,4.09 -4.09,4.09 -0.409,0 -0.802,-0.062 -1.174,-0.173 0.059,0.41 0.092,0.829 0.092,1.256 0,4.783 -3.878,8.661 -8.662,8.661 -0.545,0 -1.078,-0.053 -1.596,-0.149 -1.331,2.179 -3.724,3.638 -6.464,3.638 -4.147,0 -7.511,-3.333 -7.573,-7.465 -0.042,10e-4 -0.083,0.006 -0.126,0.006 -3.853,0 -6.977,-3.124 -6.977,-6.977 0,-3.853 3.124,-6.977 6.977,-6.977 H -3.97 l -0.005,0.006 C -1.77,-4.023 0,-2.22 0,0" /></g><g
           transform="translate(89.8569,256.335)"
           id="g66"><path
             id="path68"
             style="fill:#ececec;fill-opacity:1;fill-rule:nonzero;stroke:none"
             d="m 0,0 27.082,-123.002 4.921,2.308 -28.44,121.39 z" /></g><g
           transform="translate(400.7788,133.9229)"
           id="g70"><path
             id="path72"
             style="fill:#e7e7e7;fill-opacity:1;fill-rule:nonzero;stroke:none"
             d="m 0,0 c 0,0 -16.738,115.577 20.946,235.116 l -5.913,4.561 c 0,0 -44.164,-90.401 -37.734,-242.919 z" /></g><g
           transform="translate(431.9829,400.4214)"
           id="g74"><path
             id="path76"
             style="fill:#e1e1e1;fill-opacity:1;fill-rule:nonzero;stroke:none"
             d="m 0,0 c 13.817,9.054 34.271,-5.356 37.075,-27.871 0,0 -2.384,1.472 -6.343,3.014 -1.071,5.662 -2.103,10.677 -2.103,10.677 l 0.735,-10.167 c -1.214,0.435 -2.542,0.862 -3.978,1.252 l -0.956,5.472 -0.451,-5.108 c -1.843,0.445 -3.838,0.811 -5.94,1.052 l -2.58,15.966 -1.337,-15.688 c -1.979,0.054 -4.029,-0.023 -6.132,-0.272 L 6.409,-10.809 6.396,-21.888 c -1.702,-0.271 -3.433,-0.67 -5.181,-1.195 l -1.892,16.205 c 0,0 0.056,-9.113 -0.047,-16.838 -4.428,-1.586 -8.937,-4.085 -13.343,-7.85 l -0.144,1.995 c 0,0 1.6,21.307 14.211,29.571" /></g><g
           transform="translate(412.8906,407.6572)"
           id="g78"><path
             id="path80"
             style="fill:#e1e1e1;fill-opacity:1;fill-rule:nonzero;stroke:none"
             d="m 0,0 c -10.969,12.352 -34.479,3.792 -43.073,-17.207 0,0 2.685,0.798 6.91,1.251 2.515,5.185 4.822,9.756 4.822,9.756 l -3.367,-9.621 c 1.285,0.102 2.678,0.167 4.166,0.168 l 2.354,5.032 -0.9,-5.049 c 1.895,-0.052 3.916,-0.221 6.008,-0.538 l 6.664,14.737 -2.81,-15.493 c 1.924,-0.464 3.882,-1.075 5.847,-1.866 l 4.366,10.074 -2.883,-10.698 c 1.571,-0.706 3.138,-1.545 4.687,-2.508 l 6.063,15.146 c 0,0 -2.436,-8.781 -4.356,-16.265 3.858,-2.688 7.557,-6.279 10.826,-11.065 l 0.66,1.888 c 0,0 4.027,20.984 -5.984,32.258" /></g><g
           transform="translate(402.3159,378.3672)"
           id="g82"><path
             id="path84"
             style="fill:#e1e1e1;fill-opacity:1;fill-rule:nonzero;stroke:none"
             d="M 0,0 C 10.998,10.736 19.26,1.392 19.26,1.392 15.13,0.319 11.446,-2.324 8.235,-5.696 L 6.747,-3.758 6.986,-7.067 C 6.219,-7.949 5.483,-8.869 4.777,-9.814 l -2.52,5.731 1.075,-7.759 C 2.32,-13.329 1.377,-14.851 0.508,-16.369 l -1.11,5.686 0.084,-7.535 c -0.915,-1.7 -1.739,-3.366 -2.466,-4.937 l -1.198,10.426 -0.157,-13.484 c -1.76,-4.16 -2.674,-7.083 -2.674,-7.083 0,0 -3.984,22.56 7.013,33.296" /></g><g
           transform="translate(432.0112,353.0083)"
           id="g86"><path
             id="path88"
             style="fill:#e1e1e1;fill-opacity:1;fill-rule:nonzero;stroke:none"
             d="m 0,0 -2.272,-1.308 c -0.333,1.745 -0.715,3.582 -1.152,5.443 l 1.548,2.827 -1.943,-1.2 C -3.975,6.38 -4.137,6.997 -4.304,7.611 l 1.98,5.54 -2.963,-2.207 c -1.6,4.993 -3.643,9.387 -6.196,11.485 0,0 25.226,-8.059 10.97,-35.252 0,0 -0.455,4.306 -1.47,9.956 z" /></g><g
           transform="translate(407.2041,375.2505)"
           id="g90"><path
             id="path92"
             style="fill:#e1e1e1;fill-opacity:1;fill-rule:nonzero;stroke:none"
             d="m 0,0 -4.035,7.597 1.66,-7.913 c -0.4,-0.066 -0.807,-0.14 -1.22,-0.222 l -5.227,6.51 1.288,-7.495 c -1.676,-0.505 -3.426,-1.138 -5.251,-1.935 -1.847,-0.809 -3.67,-1.741 -5.451,-2.751 l -2.548,6.648 1.186,-7.44 c -1.731,-1.034 -3.414,-2.134 -5.032,-3.267 l -1.267,5.862 0.118,-6.679 c -1.981,-1.431 -3.853,-2.896 -5.576,-4.323 l 0.156,10.619 -1.543,-11.787 c -1.767,-1.508 -3.348,-2.946 -4.7,-4.224 l -0.196,7.365 -1.861,-9.354 c -1.945,-1.927 -3.056,-3.16 -3.056,-3.16 1.015,25.791 11.001,36.034 27.545,38.799 C 1.535,15.615 13.451,-1.563 13.451,-1.563 13.451,-1.563 8.372,0.839 0,0" /></g><g
           transform="translate(455.4424,343.7324)"
           id="g94"><path
             id="path96"
             style="fill:#e1e1e1;fill-opacity:1;fill-rule:nonzero;stroke:none"
             d="m 0,0 -1.514,-7.688 c -0.725,1.909 -1.716,4.359 -2.965,7.086 L -3.124,10.65 -5.603,1.78 c -1.818,3.735 -4.066,7.801 -6.718,11.597 l 2.354,7.8 -3.82,-5.788 c -0.763,1.004 -1.554,1.982 -2.376,2.917 l 1.339,4.911 -2.065,-4.105 c -0.564,0.613 -1.142,1.203 -1.733,1.772 l 1.625,6.55 -2.581,-5.663 c -1.668,1.498 -3.435,2.799 -5.297,3.825 l 2.631,8.009 c 0,0 -1.852,-3.261 -4.123,-7.259 -2.592,1.186 -5.356,1.833 -8.285,1.732 0,0 4.968,7.989 14.187,10.748 9.219,2.759 28.998,-13.891 20.401,-50.602 0,0 -0.263,0.836 -0.774,2.262 z" /></g><g
           transform="translate(440.2822,415.0557)"
           id="g98"><path
             id="path100"
             style="fill:#e1e1e1;fill-opacity:1;fill-rule:nonzero;stroke:none"
             d="m 0,0 1.569,-4.659 c -0.508,-0.027 -1.086,-0.1 -1.721,-0.244 l -1.894,6.064 1.263,-6.226 c -1.022,-0.296 -2.168,-0.782 -3.396,-1.55 l -2.606,8.193 1.53,-8.929 c -0.414,-0.306 -0.836,-0.646 -1.264,-1.023 l -2.941,7.69 2.22,-8.354 c -1.783,-1.718 -3.653,-4.087 -5.509,-7.337 l -0.814,11.274 -1.296,-15.388 c -1.819,-3.933 -3.585,-8.825 -5.2,-14.906 0,0 -1.6,40.959 8.268,45.597 9.869,4.637 15.741,-15.084 15.741,-15.084 0,0 -0.492,0.167 -1.35,0.22 z" /></g><g
           transform="translate(426.1831,369.4526)"
           id="g102"><path
             id="path104"
             style="fill:#e1e1e1;fill-opacity:1;fill-rule:nonzero;stroke:none"
             d="m 0,0 -0.881,-7.772 -2.962,7.494 -4.024,-5.867 -1.571,5.463 -4.625,-3.88 c 0,0 0.565,9.909 3.521,14.439 C -7.585,14.408 1.252,11.226 0,0" /></g><g
           transform="translate(303.0107,244.5146)"
           id="g106"><path
             id="path108"
             style="fill:#ececec;fill-opacity:1;fill-rule:nonzero;stroke:none"
             d="m 0,0 v 54.175 c 0,0 -10.99,-11.668 -18.281,-10.085 -7.29,1.582 -16.784,-3.935 -16.784,-3.935 0,0 9.535,1.392 13.075,-2.48 3.54,-3.871 19.339,-4.284 19.339,-4.284 v -35.38 z" /></g><g
           transform="translate(351.4961,261.1211)"
           id="g110"><path
             id="path112"
             style="fill:#e1e1e1;fill-opacity:1;fill-rule:nonzero;stroke:none"
             d="m 0,0 h -2.496 v -3.407 h -8.243 V 0 h -8.094 v -3.407 h -8.244 V 0 h -8.093 v -3.407 h -8.244 V 0 h -8.093 v -3.407 h -8.244 V 0 h -8.093 v -3.407 h -8.244 V 0 h -8.093 v -3.407 h -8.244 V 0 h -2.772 l -8.032,-64.199 111.537,0.464 z" /></g><g
           transform="translate(369.2441,214.5195)"
           id="g114"><path
             id="path116"
             style="fill:#ececec;fill-opacity:1;fill-rule:nonzero;stroke:none"
             d="M 0,0 H -3.429 V -4.681 H -14.756 V 0 H -25.875 V -4.681 H -37.202 V 0 h -11.12 V -4.681 H -59.648 V 0 h -11.12 V -4.681 H -82.095 V 0 h -11.119 v -4.681 h -11.328 V 0 h -11.119 v -4.681 h -11.327 V 0 h -3.807 l -11.036,-88.206 153.245,0.637 z" /></g><g
           transform="translate(425.8457,136.6992)"
           id="g118"><path
             id="path120"
             style="fill:#f5f5f5;fill-opacity:1;fill-rule:nonzero;stroke:none"
             d="m 0,0 c -2.364,2.671 -4.597,5.399 -7.071,7.972 -0.216,0.224 -0.318,0.35 -0.359,0.422 -0.807,0.538 -1.672,0.984 -2.547,1.405 -0.155,0.054 -0.674,0.263 -1.211,0.459 -0.995,0.365 -1.981,0.756 -2.964,1.151 -6.215,2.501 -11.796,5.398 -16.483,10.331 -2.569,2.703 -4.62,5.856 -7.283,8.468 -0.064,-0.087 -0.588,0.188 -0.836,0.397 -0.792,0.091 -1.865,0.249 -2.007,0.252 -1.074,0.017 -2.151,-0.018 -3.223,-0.066 -1.535,-0.068 -3.064,-0.193 -4.592,-0.328 -5.958,-8.723 -13.495,-20.628 -16.822,-22.204 -5.146,-2.437 -52.613,-14.969 -56.107,-14.23 -3.495,0.74 -21.824,-0.739 -26.424,-0.568 -4.6,0.171 -12.929,2.212 -24.985,7.755 -12.057,5.543 -18.654,5.585 -33.182,10.211 -14.527,4.626 -24.266,6.39 -32.767,-0.73 -8.501,-7.12 -31.851,7.911 -39.128,10.054 -7.277,2.142 -21.206,14.473 -30.707,8.72 -9.501,-5.753 -17.401,-8.489 -29.268,-18.774 -11.868,-10.285 -35.421,-30.146 -35.421,-30.146 H 27.572 l -4.603,8.053 C 14.099,-10.914 5.999,-6.777 0,0" /></g><g
           transform="translate(43.1758,235)"
           id="g122"><path
             id="path124"
             style="fill:#e1e1e1;fill-opacity:1;fill-rule:nonzero;stroke:none"
             d="m 0,0 c 0,0 11.67,20.967 43.298,39.116 0,0 25.735,2.194 54.793,-10.473 0,0 5.892,-9.786 -0.803,-13.643 -6.695,-3.857 -12.254,3.899 -12.254,3.899 0,0 -1.235,-11.818 -9.97,-12.161 C 66.33,6.396 63.759,15 63.759,15 c 0,0 -0.858,-10.847 -11.282,-13.588 -9.053,-2.38 -14.676,5.326 -14.676,5.326 0,0 -1.801,-8.914 -9.911,-11.485 -6.519,-2.067 -10.986,3.542 -10.986,3.542 0,0 -1.871,-9.674 -8.794,-9.674 C 2.176,-10.88 0,0 0,0" /></g></g></g><g
       id="g126"><g
         clip-path="url(#clipPath132)"
         id="g128"><g
           transform="translate(302.228,423.751)"
           id="g134"><path
             id="path136"
             style="fill:#007cff;fill-opacity:1;fill-rule:nonzero;stroke:none"
             d="m 0,0 c 16.529,5.465 35.058,5.604 54.932,-1.93 41.493,-15.73 59.827,-63.772 57.749,-105.288 -2.098,-41.918 -25.461,-81.623 -66.827,-94.835 -21.429,-6.844 -44.58,-6.235 -66.829,-2.909 -13.228,1.979 -26.96,4.859 -39.744,0.927 -21.073,-6.482 -31.452,-27.588 -46.299,-42.029 -30.012,-29.193 -78.029,-25.498 -107.178,3.171 -15.842,15.581 -25.407,37.73 -23.292,60.103 4.447,47.036 49.153,64.268 90.956,61.702 29.889,-1.834 64.481,-0.65 73.718,33.761 C -62.561,-49.131 -36.031,-11.913 0,0" /></g><g
           id="g138"><g
             id="g140" /><g
             id="g152"><g
               style="opacity:0.89999402"
               id="g150"
               clip-path="url(#clipPath144)"><g
                 id="g148"
                 transform="translate(302.228,423.751)"><path
                   id="path146"
                   style="fill:#ffffff;fill-opacity:1;fill-rule:nonzero;stroke:none"
                   d="m 0,0 c 16.529,5.465 35.058,5.604 54.932,-1.93 41.493,-15.73 59.827,-63.772 57.749,-105.288 -2.098,-41.918 -25.461,-81.623 -66.827,-94.835 -21.429,-6.844 -44.58,-6.235 -66.829,-2.909 -13.228,1.979 -26.96,4.859 -39.744,0.927 -21.073,-6.482 -31.452,-27.588 -46.299,-42.029 -30.012,-29.193 -78.029,-25.498 -107.178,3.171 -15.842,15.581 -25.407,37.73 -23.292,60.103 4.447,47.036 49.153,64.268 90.956,61.702 29.889,-1.834 64.481,-0.65 73.718,33.761 C -62.561,-49.131 -36.031,-11.913 0,0" /></g></g></g></g></g></g><g
       id="g154"><g
         clip-path="url(#clipPath160)"
         id="g156"><g
           transform="translate(443.8892,83.7617)"
           id="g162"><path
             id="path164"
             style="fill:#f5f5f5;fill-opacity:1;fill-rule:nonzero;stroke:none"
             d="m 0,0 c 0,-6.254 -86.807,-11.323 -193.889,-11.323 -107.082,0 -193.889,5.069 -193.889,11.323 0,6.254 86.807,11.323 193.889,11.323 C -86.807,11.323 0,6.254 0,0" /></g></g></g><g
       id="g166"><g
         clip-path="url(#clipPath172)"
         id="g168"><g
           transform="translate(383.9888,133.0928)"
           id="g174"><path
             id="path176"
             style="fill:#007cff;fill-opacity:1;fill-rule:nonzero;stroke:none"
             d="m 0,0 c 0,0 4.352,6.369 8.308,8.149 3.956,1.781 4.608,8.544 6.755,8.92 2.146,0.376 4.52,-5.875 8.278,-7.694 3.758,-1.819 9.45,-9.336 9.45,-9.336 z" /></g><g
           id="g178"><g
             id="g180" /><g
             id="g192"><g
               style="opacity:0.80000299"
               id="g190"
               clip-path="url(#clipPath184)"><g
                 id="g188"
                 transform="translate(383.9888,133.0928)"><path
                   id="path186"
                   style="fill:#ffffff;fill-opacity:1;fill-rule:nonzero;stroke:none"
                   d="m 0,0 c 0,0 4.352,6.369 8.308,8.149 3.956,1.781 4.608,8.544 6.755,8.92 2.146,0.376 4.52,-5.875 8.278,-7.694 3.758,-1.819 9.45,-9.336 9.45,-9.336 z" /></g></g></g></g><g
           transform="translate(415.6226,87.2266)"
           id="g194"><path
             id="path196"
             style="fill:#007cff;fill-opacity:1;fill-rule:nonzero;stroke:none"
             d="m 0,0 h -31.644 l -4,45.905 H 4 Z" /></g><path
           id="path198"
           style="fill:#007cff;fill-opacity:1;fill-rule:nonzero;stroke:none"
           d="m 421.537,130.681 h -43.472 v 4.825 h 43.472 z" /><g
           id="g200"><g
             id="g202" /><g
             id="g212"><g
               style="opacity:0.19999701"
               id="g210"
               clip-path="url(#clipPath206)"><path
                 id="path208"
                 style="fill:#ffffff;fill-opacity:1;fill-rule:nonzero;stroke:none"
                 d="m 421.537,130.681 h -43.472 v 4.825 h 43.472 z" /></g></g></g><g
           transform="translate(397.9258,132.1123)"
           id="g214"><path
             id="path216"
             style="fill:#1a2e35;fill-opacity:1;fill-rule:nonzero;stroke:none"
             d="m 0,0 c 2.885,-4.519 15.21,-23.175 22.854,-24.533 l 0.945,2.26 c 0,0 -6.848,-0.82 -21.966,23.414 C 1.531,1.624 0.903,1.799 0.402,1.528 -0.151,1.231 -0.338,0.529 0,0" /></g><g
           transform="translate(352.9111,146.5908)"
           id="g218"><path
             id="path220"
             style="fill:#007cff;fill-opacity:1;fill-rule:nonzero;stroke:none"
             d="m 0,0 v 0 c 1.368,0.429 2.821,-0.354 3.215,-1.731 l 5.407,-18.893 7.027,2.813 c 0,0 4.231,-15.752 -3.758,-18.238 -7.813,-2.431 -13.846,12.107 -13.846,12.107 l 7.141,1.975 -6.818,18.658 C -2.131,-1.942 -1.388,-0.436 0,0" /></g><g
           id="g222"><g
             id="g224" /><g
             id="g236"><g
               style="opacity:0.39999402"
               id="g234"
               clip-path="url(#clipPath228)"><g
                 id="g232"
                 transform="translate(364.7998,110.54)"><path
                   id="path230"
                   style="fill:#ffffff;fill-opacity:1;fill-rule:nonzero;stroke:none"
                   d="m 0,0 c -7.81,-2.43 -13.84,12.11 -13.84,12.11 l 7.14,1.97 c 0,0 1.23,-2.101 2.61,-1.58 1.39,0.53 0.82,2.93 0.82,2.93 l 7.03,2.81 C 3.76,18.24 7.99,2.49 0,0" /></g></g></g></g><g
           transform="translate(424.667,83.3496)"
           id="g238"><path
             id="path240"
             style="fill:#007cff;fill-opacity:1;fill-rule:nonzero;stroke:none"
             d="m 0,0 c -3.932,1.949 -7.946,3.792 -9.232,3.877 -2.769,0.183 -4.352,1.413 -6.33,3.765 -1.978,2.351 -2.769,5.069 -6.33,8.853 -3.56,3.784 0.396,5.295 -7.12,6.269 -7.517,0.974 -4.616,0.356 -9.231,3.683 -4.615,3.326 -3.686,3.326 -9.095,5.7 -5.411,2.374 -2.246,3.282 -8.576,3.817 -4.37,0.369 -11.287,-1.934 -14.871,-4.492 -1.591,-1.136 -2.406,-3.019 -3.974,-4.017 -1.766,-1.122 -4.518,0.964 -4.229,-2.804 0.075,-0.986 0.359,-1.985 0.13,-2.948 -0.51,-2.139 -9.322,-2.136 -11.556,-2.804 -0.516,-0.154 -1.081,-0.347 -1.344,-0.817 -0.51,-0.91 0.257,-2.52 -0.731,-2.854 -0.31,-0.105 -0.654,0.014 -0.974,-0.046 -1.195,-0.23 -0.88,-2.369 -1.992,-2.861 -1.062,-0.469 -2.409,0.508 -3.65,0.042 -0.956,-0.358 -1.271,-1.643 -2.101,-2.15 -1.446,-0.883 -2.953,-1.533 -4.38,-2.469 -2.482,-1.627 -4.631,-3.618 -7.294,-5.052 L -120.001,0.746 -122.128,0 Z" /></g><g
           id="g242"><g
             id="g244" /><g
             id="g256"><g
               style="opacity:0.80000299"
               id="g254"
               clip-path="url(#clipPath248)"><g
                 id="g252"
                 transform="translate(424.667,83.3496)"><path
                   id="path250"
                   style="fill:#ffffff;fill-opacity:1;fill-rule:nonzero;stroke:none"
                   d="m 0,0 c -3.932,1.949 -7.946,3.792 -9.232,3.877 -2.769,0.183 -4.352,1.413 -6.33,3.765 -1.978,2.351 -2.769,5.069 -6.33,8.853 -3.56,3.784 0.396,5.295 -7.12,6.269 -7.517,0.974 -4.616,0.356 -9.231,3.683 -4.615,3.326 -3.686,3.326 -9.095,5.7 -5.411,2.374 -2.246,3.282 -8.576,3.817 -4.37,0.369 -11.287,-1.934 -14.871,-4.492 -1.591,-1.136 -2.406,-3.019 -3.974,-4.017 -1.766,-1.122 -4.518,0.964 -4.229,-2.804 0.075,-0.986 0.359,-1.985 0.13,-2.948 -0.51,-2.139 -9.322,-2.136 -11.556,-2.804 -0.516,-0.154 -1.081,-0.347 -1.344,-0.817 -0.51,-0.91 0.257,-2.52 -0.731,-2.854 -0.31,-0.105 -0.654,0.014 -0.974,-0.046 -1.195,-0.23 -0.88,-2.369 -1.992,-2.861 -1.062,-0.469 -2.409,0.508 -3.65,0.042 -0.956,-0.358 -1.271,-1.643 -2.101,-2.15 -1.446,-0.883 -2.953,-1.533 -4.38,-2.469 -2.482,-1.627 -4.631,-3.618 -7.294,-5.052 L -120.001,0.746 -122.128,0 Z" /></g></g></g></g><g
           transform="translate(340.75,101.5488)"
           id="g258"><path
             id="path260"
             style="fill:#007cff;fill-opacity:1;fill-rule:nonzero;stroke:none"
             d="m 0,0 c 0,-0.079 0,-0.14 -0.01,-0.22 v -0.009 c -0.04,-3.51 -1.07,-6.791 -2.84,-9.55 -0.15,-0.231 -0.3,-0.46 -0.47,-0.691 -1.05,-1.49 -2.32,-2.819 -3.76,-3.929 -0.33,-0.26 -0.67,-0.51 -1.02,-0.731 h -0.01 c -0.08,-0.059 -0.17,-0.12 -0.25,-0.159 -0.11,-0.08 -0.22,-0.141 -0.33,-0.211 -0.17,-0.119 -0.35,-0.22 -0.53,-0.319 -0.28,-0.16 -0.57,-0.321 -0.86,-0.46 h -0.01 c -2.44,-1.231 -5.19,-1.92 -8.11,-1.92 -5.18,0 -9.86,2.17 -13.16,5.639 -1.22,1.26 -2.25,2.701 -3.05,4.271 -1.28,2.489 -2,5.31 -2,8.289 v 0.061 c 0,0.509 0.02,1.019 0.07,1.519 0.2,2.41 0.88,4.681 1.93,6.721 0.27,0.529 0.56,1.04 0.88,1.529 1.05,1.631 2.35,3.08 3.84,4.301 0.48,0.39 0.97,0.75 1.49,1.08 0.18,0.13 0.37,0.25 0.56,0.359 1.42,0.87 2.96,1.54 4.6,1.991 0.14,0.04 0.28,0.08 0.42,0.11 1.41,0.35 2.89,0.54 4.42,0.54 0.47,0 0.93,-0.021 1.38,-0.061 0.12,0 0.23,-0.009 0.35,-0.019 h 0.01 c 2.07,-0.2 4.03,-0.74 5.84,-1.58 0.07,-0.03 0.15,-0.071 0.23,-0.111 1.56,-0.74 2.99,-1.69 4.27,-2.82 3.18,-2.83 5.37,-6.769 5.96,-11.21 V 2.381 C -0.05,1.601 0,0.811 0,0" /></g><g
           id="g262"><g
             id="g264" /><g
             id="g276"><g
               style="opacity:0.60000598"
               id="g274"
               clip-path="url(#clipPath268)"><g
                 id="g272"
                 transform="translate(340.75,101.5488)"><path
                   id="path270"
                   style="fill:#ffffff;fill-opacity:1;fill-rule:nonzero;stroke:none"
                   d="m 0,0 c 0,-7.13 -4.1,-13.31 -10.08,-16.279 -0.01,-0.01 -0.01,0 -0.01,0 -0.72,0.599 -1,1.229 -1,1.229 3.36,9.8 0,15.05 0,15.05 l 0.01,0.101 0.24,1.57 0.05,0.29 C -10.27,4.87 -8.96,10.32 -6.12,13.62 -2.37,10.29 0,5.421 0,0" /></g></g></g></g><g
           id="g278"><g
             id="g280" /><g
             id="g292"><g
               style="opacity:0.60000598"
               id="g290"
               clip-path="url(#clipPath284)"><g
                 id="g288"
                 transform="translate(308.5903,104.6992)"><path
                   id="path286"
                   style="fill:#ffffff;fill-opacity:1;fill-rule:nonzero;stroke:none"
                   d="m 0,0 c 0,0 -3.19,-3.189 -2.25,-11.439 -1.28,2.489 -2,5.309 -2,8.289 0,5.7 2.62,10.79 6.72,14.13 C 0.709,7.59 -0.22,3.51 0,0" /></g></g></g></g><g
           id="g294"><g
             id="g296" /><g
             id="g308"><g
               style="opacity:0.19999701"
               id="g306"
               clip-path="url(#clipPath300)"><g
                 id="g304"
                 transform="translate(334.6299,115.1689)"><path
                   id="path302"
                   style="fill:#ffffff;fill-opacity:1;fill-rule:nonzero;stroke:none"
                   d="m 0,0 c -4,-4.64 -4.97,-13.62 -4.97,-13.62 -10.98,-2.69 -21.07,3.15 -21.07,3.15 -0.22,3.51 0.72,7.59 2.47,10.981 3.14,2.55 7.13,4.08 11.49,4.08 C -7.44,4.591 -3.22,2.851 0,0" /></g></g></g></g><g
           id="g310"><g
             id="g312" /><g
             id="g324"><g
               style="opacity:0.19999701"
               id="g322"
               clip-path="url(#clipPath316)"><g
                 id="g320"
                 transform="translate(330.6602,85.2695)"><path
                   id="path318"
                   style="fill:#ffffff;fill-opacity:1;fill-rule:nonzero;stroke:none"
                   d="m 0,0 c -2.44,-1.23 -5.19,-1.92 -8.11,-1.92 -5.18,0 -9.86,2.17 -13.16,5.64 C -17.86,1.689 -10.89,-1.15 -1,1.229 -1,1.229 -0.72,0.6 0,0" /></g></g></g></g><g
           id="g326"><g
             id="g328" /><g
             id="g388"><g
               style="opacity:0.19999701"
               id="g386"
               clip-path="url(#clipPath332)"><g
                 id="g336"
                 transform="translate(330.3599,117.9893)"><path
                   id="path334"
                   style="fill:#000000;fill-opacity:1;fill-rule:nonzero;stroke:none"
                   d="m 0,0 c -0.48,-0.67 -0.91,-1.36 -1.31,-2.08 -0.74,-1.38 -1.38,-2.81 -1.91,-4.28 -0.56,-1.47 -0.99,-2.98 -1.4,-4.49 -0.39,-1.52 -0.74,-3.06 -1.03,-4.61 0.09,1.58 0.34,3.14 0.66,4.69 0.33,1.55 0.78,3.08 1.3,4.58 0.58,1.48 1.22,2.94 2.04,4.3 0.44,0.69 0.91,1.37 1.42,2 C -0.16,0.08 -0.08,0.04 0,0" /></g><g
                 id="g340"
                 transform="translate(324.2798,119.6797)"><path
                   id="path338"
                   style="fill:#000000;fill-opacity:1;fill-rule:nonzero;stroke:none"
                   d="m 0,0 c -0.25,-0.45 -0.48,-0.91 -0.7,-1.37 -0.739,-1.54 -1.33,-3.16 -1.81,-4.811 -0.53,-1.639 -0.929,-3.319 -1.31,-5 -0.369,-1.679 -0.7,-3.38 -0.99,-5.08 0.09,1.731 0.32,3.45 0.621,5.16 0.289,1.71 0.709,3.401 1.199,5.061 0.531,1.659 1.12,3.31 1.95,4.85 0.22,0.41 0.45,0.82 0.69,1.21 C -0.23,0.02 -0.12,0.01 0,0" /></g><g
                 id="g344"
                 transform="translate(318.1299,119.2197)"><path
                   id="path342"
                   style="fill:#000000;fill-opacity:1;fill-rule:nonzero;stroke:none"
                   d="m 0,0 c -0.1,-0.271 -0.21,-0.54 -0.31,-0.811 -0.55,-1.479 -1,-3 -1.35,-4.549 -0.39,-1.54 -0.69,-3.1 -0.98,-4.67 -0.28,-1.571 -0.53,-3.141 -0.76,-4.72 0.02,1.6 0.18,3.189 0.39,4.779 0.2,1.59 0.51,3.16 0.87,4.721 0.38,1.56 0.84,3.1 1.47,4.59 0.08,0.18 0.16,0.37 0.25,0.55 0.14,0.04 0.28,0.08 0.42,0.11" /></g><g
                 id="g348"
                 transform="translate(313.1099,117.1191)"><path
                   id="path346"
                   style="fill:#000000;fill-opacity:1;fill-rule:nonzero;stroke:none"
                   d="m 0,0 c -0.34,-1.12 -0.66,-2.24 -0.89,-3.38 -0.29,-1.269 -0.5,-2.559 -0.7,-3.849 -0.19,-1.291 -0.34,-2.591 -0.46,-3.901 -0.08,1.31 -0.03,2.63 0.08,3.941 0.12,1.309 0.33,2.619 0.59,3.909 0.23,0.99 0.49,1.96 0.82,2.921 0.18,0.13 0.37,0.25 0.56,0.359" /></g><g
                 id="g352"
                 transform="translate(334.7798,95.4795)"><path
                   id="path350"
                   style="fill:#000000;fill-opacity:1;fill-rule:nonzero;stroke:none"
                   d="M 0,0 C 0.02,-1.87 -0.16,-3.771 -0.73,-5.57 -0.95,-6.48 -1.35,-7.34 -1.7,-8.2 -1.83,-8.49 -1.98,-8.78 -2.13,-9.061 h -0.01 c -0.08,-0.059 -0.17,-0.12 -0.25,-0.159 0.53,1.22 1,2.46 1.29,3.75 0.48,1.78 0.661,3.63 0.6,5.46 -0.01,1.84 -0.33,3.67 -0.84,5.43 -0.52,1.769 -1.25,3.49 -2.2,5.09 1.13,-1.49 1.96,-3.2 2.56,-4.97 C -0.37,3.76 -0.05,1.88 0,0" /></g><g
                 id="g356"
                 transform="translate(338.3701,95.9893)"><path
                   id="path354"
                   style="fill:#000000;fill-opacity:1;fill-rule:nonzero;stroke:none"
                   d="m 0,0 -0.05,-1.51 -0.21,-1.5 c -0.04,-0.41 -0.12,-0.81 -0.21,-1.21 -0.15,-0.23 -0.3,-0.46 -0.47,-0.69 0.13,0.65 0.27,1.29 0.3,1.95 L -0.49,-1.479 -0.46,0 c 0.03,0.5 0,0.99 -0.04,1.49 -0.05,0.49 -0.05,0.98 -0.14,1.47 -0.2,1.97 -0.75,3.89 -1.47,5.73 -0.73,1.84 -1.7,3.6 -2.94,5.16 1.4,-1.43 2.47,-3.17 3.29,-5.01 0.81,-1.85 1.37,-3.81 1.62,-5.819 0.08,-0.5 0.07,-1 0.11,-1.511 C 0.01,1.01 0.03,0.5 0,0" /></g><g
                 id="g360"
                 transform="translate(340.75,101.5488)"><path
                   id="path358"
                   style="fill:#000000;fill-opacity:1;fill-rule:nonzero;stroke:none"
                   d="M 0,0 C 0,-0.079 0,-0.14 -0.01,-0.22 -0.03,-0.109 -0.05,0.011 -0.07,0.12 -0.49,2.2 -1.18,4.211 -2.08,6.131 -2.99,8.04 -4.1,9.881 -5.54,11.461 -3.97,10 -2.72,8.211 -1.74,6.301 -1.1,5.051 -0.58,3.75 -0.16,2.41 V 2.381 C -0.05,1.601 0,0.811 0,0" /></g><g
                 id="g364"
                 transform="translate(307.7002,107.5791)"><path
                   id="path362"
                   style="fill:#000000;fill-opacity:1;fill-rule:nonzero;stroke:none"
                   d="m 0,0 c -0.82,-0.899 -1.48,-1.91 -2.05,-2.96 -0.52,-0.97 -0.96,-1.97 -1.31,-3.01 0,0.51 0.02,1.02 0.07,1.52 0.269,0.58 0.57,1.14 0.91,1.68 0.65,1.041 1.42,2.02 2.38,2.77" /></g><g
                 id="g368"
                 transform="translate(308.5601,112.4189)"><path
                   id="path366"
                   style="fill:#000000;fill-opacity:1;fill-rule:nonzero;stroke:none"
                   d="m 0,0 c -0.76,-0.859 -1.5,-1.71 -2.22,-2.569 0.27,0.529 0.56,1.04 0.88,1.529 0.43,0.37 0.87,0.721 1.34,1.04" /></g><g
                 id="g372"
                 transform="translate(308.5586,100.8408)"><path
                   id="path370"
                   style="fill:#000000;fill-opacity:1;fill-rule:nonzero;stroke:none"
                   d="m 0,0 c 1.662,-0.639 3.346,-1.199 5.045,-1.697 1.704,-0.484 3.414,-0.948 5.159,-1.229 3.465,-0.64 7.055,-0.815 10.501,0.13 -1.655,-0.672 -3.448,-0.967 -5.239,-1.049 -1.796,-0.067 -3.584,0.147 -5.35,0.427 C 8.354,-3.091 6.624,-2.63 4.931,-2.063 3.242,-1.484 1.579,-0.827 0,0" /></g><g
                 id="g376"
                 transform="translate(308.5586,96.4922)"><path
                   id="path374"
                   style="fill:#000000;fill-opacity:1;fill-rule:nonzero;stroke:none"
                   d="m 0,0 c 1.675,-0.672 3.39,-1.225 5.125,-1.681 1.738,-0.448 3.499,-0.808 5.277,-1.012 1.773,-0.261 3.569,-0.306 5.357,-0.253 l 1.344,0.062 1.335,0.162 c 0.902,0.056 1.766,0.319 2.664,0.448 C 19.38,-2.81 17.598,-3.227 15.781,-3.33 13.971,-3.465 12.143,-3.414 10.34,-3.188 8.542,-2.939 6.755,-2.582 5.021,-2.049 3.291,-1.512 1.591,-0.86 0,0" /></g><g
                 id="g380"
                 transform="translate(308.9888,92.7344)"><path
                   id="path378"
                   style="fill:#000000;fill-opacity:1;fill-rule:nonzero;stroke:none"
                   d="m 0,0 c 1.577,-0.745 3.211,-1.345 4.876,-1.821 1.664,-0.48 3.362,-0.838 5.08,-1.024 0.854,-0.135 1.718,-0.159 2.58,-0.223 0.863,0.01 1.729,-0.024 2.591,0.048 1.734,0.055 3.437,0.399 5.148,0.746 C 18.622,-2.82 16.91,-3.266 15.157,-3.402 13.41,-3.593 11.64,-3.544 9.895,-3.341 8.154,-3.11 6.425,-2.752 4.763,-2.188 3.102,-1.629 1.482,-0.928 0,0" /></g><g
                 id="g384"
                 transform="translate(309.7471,89.8994)"><path
                   id="path382"
                   style="fill:#000000;fill-opacity:1;fill-rule:nonzero;stroke:none"
                   d="m 0,0 c 1.49,-0.692 3.028,-1.256 4.593,-1.714 1.566,-0.45 3.16,-0.802 4.775,-0.984 1.609,-0.239 3.242,-0.258 4.862,-0.156 l 1.218,0.095 1.206,0.196 c 0.817,0.086 1.59,0.366 2.401,0.519 -1.534,-0.573 -3.137,-1.051 -4.79,-1.192 C 12.62,-3.422 10.95,-3.397 9.306,-3.193 7.666,-2.966 6.041,-2.615 4.478,-2.079 2.917,-1.539 1.395,-0.875 0,0" /></g></g></g></g></g></g><g
       id="g390"><g
         clip-path="url(#clipPath396)"
         id="g392"><g
           transform="translate(113.791,130.165)"
           id="g398"><path
             id="path400"
             style="fill:#1a2e35;fill-opacity:1;fill-rule:nonzero;stroke:none"
             d="M 0,0 C 0,0 3.561,5.341 9.89,5.736 16.22,6.132 21.561,-1.94 21.561,-1.94 h -2.009 c 0,0 -5.112,5.501 -8.772,5.501 -3.659,0 -7.219,-4.55 -7.219,-4.55 z" /></g><g
           transform="translate(60.0801,87.9414)"
           id="g402"><path
             id="path404"
             style="fill:#1a2e35;fill-opacity:1;fill-rule:nonzero;stroke:none"
             d="m 0,0 c 2.195,3.652 26.722,1.283 32.261,3.457 l 2.967,-5.145 c 0,0 -4.228,-2.346 -11.252,-1.518 -7.025,0.828 -17.627,1.051 -20.397,-1.386 z" /></g><g
           id="g406"><g
             id="g408" /><g
             id="g420"><g
               style="opacity:0.30000299"
               id="g418"
               clip-path="url(#clipPath412)"><g
                 id="g416"
                 transform="translate(60.0801,87.9414)"><path
                   id="path414"
                   style="fill:#000000;fill-opacity:1;fill-rule:nonzero;stroke:none"
                   d="m 0,0 c 2.195,3.652 26.722,1.283 32.261,3.457 l 2.967,-5.145 c 0,0 -4.228,-2.346 -11.252,-1.518 -7.025,0.828 -17.627,1.051 -20.397,-1.386 z" /></g></g></g></g><g
           transform="translate(163.3999,99.0703)"
           id="g422"><path
             id="path424"
             style="fill:#1a2e35;fill-opacity:1;fill-rule:nonzero;stroke:none"
             d="M 0,0 C -0.2,-0.87 -0.42,-1.721 -0.67,-2.551 -2.64,-9.36 -5.75,-14.87 -7.99,-15.721 h -63.59 c -1.8,0 -3.46,0.841 -4.53,2.221 -0.01,0.02 -0.03,0.04 -0.05,0.069 -0.23,0.301 -0.43,0.62 -0.59,0.971 -4.39,9.17 -8.82,27.51 -2.59,35.87 0.65,0.869 1.4,1.659 2.24,2.36 0.06,0.049 0.12,0.1 0.18,0.14 1.27,1.06 2.74,1.93 4.34,2.65 0.01,0 0.01,0.009 0.02,0.009 0.01,0 0.02,0.011 0.03,0.011 4.38,1.98 9.76,2.89 15.04,3.279 1.53,0.12 3.05,0.191 4.54,0.221 3.9,0.109 7.54,0.01 10.44,-0.07 10.22,-0.26 18.26,-3.3 23.74,-2.771 2.17,0.21 4.15,0.04 6.04,-0.479 0.56,-0.16 1.11,-0.34 1.66,-0.561 C -8.78,27.3 -6.57,25.88 -4.19,23.97 1.99,19.01 2.08,8.819 0,0" /></g><g
           id="g426"><g
             id="g428" /><g
             id="g440"><g
               style="opacity:0.10000598"
               id="g438"
               clip-path="url(#clipPath432)"><g
                 id="g436"
                 transform="translate(163.3999,99.0703)"><path
                   id="path434"
                   style="fill:#ffffff;fill-opacity:1;fill-rule:nonzero;stroke:none"
                   d="M 0,0 C -0.2,-0.87 -0.42,-1.721 -0.67,-2.551 -2.64,-9.36 -5.75,-14.87 -7.99,-15.721 h -63.59 c -1.8,0 -3.46,0.841 -4.53,2.221 -0.01,0.02 -0.03,0.04 -0.05,0.069 -0.23,0.301 -0.43,0.62 -0.59,0.971 -4.39,9.17 -8.82,27.51 -2.59,35.87 0.65,0.869 1.4,1.659 2.24,2.36 0.06,0.049 0.12,0.1 0.18,0.14 1.27,1.06 2.74,1.93 4.34,2.65 0.01,0 0.01,0.009 0.02,0.009 0.01,0 0.02,0.011 0.03,0.011 4.38,1.98 9.76,2.89 15.04,3.279 1.53,0.12 3.05,0.191 4.54,0.221 3.9,0.109 7.54,0.01 10.44,-0.07 10.22,-0.26 18.26,-3.3 23.74,-2.771 2.17,0.21 4.15,0.04 6.04,-0.479 0.56,-0.16 1.11,-0.34 1.66,-0.561 C -8.78,27.3 -6.57,25.88 -4.19,23.97 1.99,19.01 2.08,8.819 0,0" /></g></g></g></g><g
           id="g442"><g
             id="g444" /><g
             id="g456"><g
               style="opacity:0.19999701"
               id="g454"
               clip-path="url(#clipPath448)"><g
                 id="g452"
                 transform="translate(153.6602,99.7002)"><path
                   id="path450"
                   style="fill:#000000;fill-opacity:1;fill-rule:nonzero;stroke:none"
                   d="m 0,0 c -4.55,0 -13.65,-2.17 -27.1,0.79 -8.736,1.929 -15.447,1.02 -19.093,0.145 -0.144,2.03 -0.312,4.227 -0.487,6.645 -1.19,16.25 -10.46,23.069 -16.11,20.37 -0.01,0 -0.02,-0.011 -0.03,-0.011 -0.01,0 -0.01,-0.009 -0.02,-0.009 -1.65,-0.8 -3.09,-1.69 -4.34,-2.65 -0.06,-0.04 -0.12,-0.091 -0.18,-0.14 -0.84,-0.701 -1.59,-1.491 -2.24,-2.36 -6.23,-8.36 -1.8,-26.7 2.59,-35.87 0.16,-0.35 0.36,-0.67 0.59,-0.971 0.02,-0.029 0.04,-0.049 0.05,-0.069 1.09,-1.23 2.65,-1.95 4.32,-1.95 h 11.41 c 4.649,0 5.201,4.257 4.682,13.409 0.786,0.453 1.753,1.035 2.838,1.74 2.83,1.841 13.84,0.931 18.59,-0.849 4.75,-1.781 17.21,-2.571 23.24,-1.59 4.19,0.68 8.26,0.42 10.36,0.189 0.25,0.83 0.47,1.681 0.67,2.551 C 7.66,-0.41 3.33,0 0,0" /></g></g></g></g><g
           id="g458"><g
             id="g460" /><g
             id="g472"><g
               style="opacity:0.19999701"
               id="g470"
               clip-path="url(#clipPath464)"><g
                 id="g468"
                 transform="translate(112.3203,122.6504)"><path
                   id="path466"
                   style="fill:#000000;fill-opacity:1;fill-rule:nonzero;stroke:none"
                   d="m 0,0 c 2.77,-10.091 4.67,-13.65 5.4,-14.641 0.73,-0.99 20.87,-3.38 24.65,-3.37 3.77,0.011 10.24,0.58 13.04,1.281 2.57,0.65 3.4,13.589 -3.08,21.349 -0.551,0.221 -1.1,0.401 -1.66,0.561 3.53,-7.92 3.609,-17.62 3.19,-18.97 -0.601,-1.92 -6.53,-1.641 -9.3,-1.58 -2.77,0.05 -19.98,1.13 -21.761,1.83 -1.79,0.71 -2.77,1.67 -4.149,3.449 -1.391,1.78 -1.58,7.91 -4.09,13.2 C 1.33,5.01 -0.24,6.88 -1.87,8.5 -3.36,8.47 -4.88,8.399 -6.41,8.279 -3.8,6.81 -1.18,4.3 0,0" /></g></g></g></g><g
           transform="translate(92.3408,113.3564)"
           id="g474"><path
             id="path476"
             style="fill:#1a2e35;fill-opacity:1;fill-rule:nonzero;stroke:none"
             d="m 0,0 -5.539,-1.39 c 0,0 -3.933,-11.274 -1.582,-16.021 2.351,-4.747 -16.041,-11.289 -25.14,-8.004 l 3.579,-4.592 c 0,0 21.759,1.37 25.912,9.653 4.154,8.284 -1.78,9.556 -2.175,11.887 C -5.341,-6.137 0,0 0,0" /></g><g
           id="g478"><g
             id="g480" /><g
             id="g492"><g
               style="opacity:0.10000598"
               id="g490"
               clip-path="url(#clipPath484)"><g
                 id="g488"
                 transform="translate(92.3408,113.3564)"><path
                   id="path486"
                   style="fill:#ffffff;fill-opacity:1;fill-rule:nonzero;stroke:none"
                   d="m 0,0 -5.539,-1.39 c 0,0 -3.933,-11.274 -1.582,-16.021 2.351,-4.747 -16.041,-11.289 -25.14,-8.004 l 3.579,-4.592 c 0,0 21.759,1.37 25.912,9.653 4.154,8.284 -1.78,9.556 -2.175,11.887 C -5.341,-6.137 0,0 0,0" /></g></g></g></g></g></g><g
       id="g494"><g
         clip-path="url(#clipPath500)"
         id="g496"><g
           transform="translate(141.2671,345.9844)"
           id="g502"><path
             id="path504"
             style="fill:#fe8a7b;fill-opacity:1;fill-rule:nonzero;stroke:none"
             d="m 0,0 c 0,0 -21.398,11.975 -25.827,15.076 -4.429,3.1 -28.126,26.354 -29.455,27.018 0,0 0.886,2.658 -1.107,4.208 -1.994,1.55 -9.745,6.644 -10.852,6.644 -1.108,0 -3.987,-10.852 -3.544,-13.509 0.443,-2.658 11.295,-3.322 11.295,-3.322 0,0 22.59,-26.304 26.133,-29.983 3.544,-3.68 27.683,-19.404 27.683,-19.404 z" /></g><g
           transform="translate(150.0503,343.791)"
           id="g506"><path
             id="path508"
             style="fill:#007cff;fill-opacity:1;fill-rule:nonzero;stroke:none"
             d="M 0,0 C 0,0 4.693,-9.476 -6.7,-24.509 L -31.807,-6.05 -21.785,12.101 Z" /></g><g
           id="g510"><g
             id="g512" /><g
             id="g524"><g
               style="opacity:0.60000598"
               id="g522"
               clip-path="url(#clipPath516)"><g
                 id="g520"
                 transform="translate(143.3501,319.2798)"><path
                   id="path518"
                   style="fill:#ffffff;fill-opacity:1;fill-rule:nonzero;stroke:none"
                   d="m 0,0 -11.86,8.72 -1.55,1.14 -6.69,4.91 -5.01,3.69 3.69,6.67 2.09,3.79 4.25,7.69 4.1,-2.28 3.54,-1.96 14.14,-7.86 c 0,0 0.6,-1.21 0.85,-3.45 C 8,17.03 7.32,9.67 0,0" /></g></g></g></g><g
           id="g526"><g
             id="g528" /><g
             id="g540"><g
               style="opacity:0.19999701"
               id="g538"
               clip-path="url(#clipPath532)"><g
                 id="g536"
                 transform="translate(143.3501,319.2798)"><path
                   id="path534"
                   style="fill:#000000;fill-opacity:1;fill-rule:nonzero;stroke:none"
                   d="M 0,0 -11.86,8.72 C -7.79,17.14 2.74,20.11 7.55,21.06 8,17.03 7.32,9.67 0,0" /></g></g></g></g><g
           id="g542"><g
             id="g544" /><g
             id="g568"><g
               style="opacity:0.19999701"
               id="g566"
               clip-path="url(#clipPath548)"><g
                 id="g552"
                 transform="translate(135.9102,351.6499)"><path
                   id="path550"
                   style="fill:#ffffff;fill-opacity:1;fill-rule:nonzero;stroke:none"
                   d="M 0,0 -3.54,-2.06 V 1.96 Z" /></g><g
                 id="g556"
                 transform="translate(128.21,346.96)"><path
                   id="path554"
                   style="fill:#ffffff;fill-opacity:1;fill-rule:nonzero;stroke:none"
                   d="m 0,0 -4.44,-6.23 -1.84,3.68 2.09,3.79 z" /></g><g
                 id="g560"
                 transform="translate(131.4902,337.5898)"><path
                   id="path558"
                   style="fill:#ffffff;fill-opacity:1;fill-rule:nonzero;stroke:none"
                   d="m 0,0 -1.55,-8.45 -6.69,4.91 z" /></g><g
                 id="g564"
                 transform="translate(134.5601,342.4067)"><path
                   id="path562"
                   style="fill:#ffffff;fill-opacity:1;fill-rule:nonzero;stroke:none"
                   d="M 0,0 2.473,-6.327 7.605,0.648 Z" /></g></g></g></g><g
           transform="translate(196.7231,348.2734)"
           id="g570"><path
             id="path572"
             style="fill:#fe8a7b;fill-opacity:1;fill-rule:nonzero;stroke:none"
             d="m 0,0 c 0,0 21.398,11.975 25.828,15.076 4.429,3.1 28.126,26.354 29.454,27.018 0,0 -0.886,2.658 1.108,4.208 1.993,1.551 9.744,6.644 10.851,6.644 1.108,0 3.987,-10.852 3.544,-13.509 C 70.342,36.779 59.49,36.115 59.49,36.115 59.49,36.115 36.901,9.812 33.357,6.132 29.814,2.452 5.674,-13.272 5.674,-13.272 Z" /></g><g
           transform="translate(171.1499,221.5498)"
           id="g574"><path
             id="path576"
             style="fill:#fe8a7b;fill-opacity:1;fill-rule:nonzero;stroke:none"
             d="M 0,0 C 0,0 -0.46,-7.569 -1.19,-17.649 -1.65,-23.93 -2.22,-31.18 -2.84,-38.189 -3.68,-47.609 -4.63,-56.59 -5.58,-62.17 -6.45,-67.3 -18,-131.01 -18,-131.01 h -7.74 c 2.44,59.41 6.22,82.45 6.36,85.91 0.05,1.13 0.09,2.701 0.14,4.57 0.15,6.78 0.28,17.49 0.36,25.28 0.06,5.62 0.09,9.71 0.09,9.71 z" /></g><g
           transform="translate(201.02,173.4805)"
           id="g578"><path
             id="path580"
             style="fill:#fe8a7b;fill-opacity:1;fill-rule:nonzero;stroke:none"
             d="m 0,0 c -0.27,-5.19 -3.36,-82.681 -3.36,-82.681 h -8.51 c -4.35,61.72 -2.7,83.151 -3.48,87.431 0,0.02 -0.01,0.029 -0.01,0.05 -1.33,7.279 -2.58,16.849 -3.44,23.95 -0.69,5.71 -1.12,9.819 -1.12,9.819 l 17.35,7.5 c 0,0 1.05,-8.96 1.84,-19.78 C -0.34,20.89 0,15.02 0.1,9.56 0.17,6.14 0.15,2.88 0,0" /></g><g
           id="g582"><g
             id="g584" /><g
             id="g596"><g
               style="opacity:0.19999701"
               id="g594"
               clip-path="url(#clipPath588)"><g
                 id="g592"
                 transform="translate(152.27,206.2998)"><path
                   id="path590"
                   style="fill:#000000;fill-opacity:1;fill-rule:nonzero;stroke:none"
                   d="M 0,0 17.69,-2.399 C 17.23,-8.68 16.66,-15.93 16.04,-22.939 L -0.36,-25.28 C -0.21,-18.5 -0.08,-7.79 0,0" /></g></g></g></g><g
           id="g598"><g
             id="g600" /><g
             id="g612"><g
               style="opacity:0.19999701"
               id="g610"
               clip-path="url(#clipPath604)"><g
                 id="g608"
                 transform="translate(201.1201,183.04)"><path
                   id="path606"
                   style="fill:#000000;fill-opacity:1;fill-rule:nonzero;stroke:none"
                   d="m 0,0 -15.46,-4.76 c -1.33,7.28 -2.58,16.85 -3.44,23.95 L -0.83,16.729 C -0.44,11.33 -0.1,5.46 0,0" /></g></g></g></g><g
           transform="translate(154.98,92.917)"
           id="g614"><path
             id="path616"
             style="fill:#007cff;fill-opacity:1;fill-rule:nonzero;stroke:none"
             d="m 0,0 h -10.209 c -0.345,-0.002 -0.642,-0.241 -0.716,-0.577 l -1.658,-7.484 c -0.141,-0.669 0.287,-1.328 0.957,-1.469 0.09,-0.019 0.181,-0.029 0.273,-0.027 3.303,0.053 5.708,0.256 9.856,0.256 2.555,0 10.263,-0.266 13.79,-0.266 3.528,0 3.988,3.484 2.545,3.805 C 8.36,-4.351 3.485,-2.395 1.411,-0.534 1.027,-0.182 0.521,0.01 0,0" /></g><g
           transform="translate(198.2754,93.1846)"
           id="g618"><path
             id="path620"
             style="fill:#007cff;fill-opacity:1;fill-rule:nonzero;stroke:none"
             d="m 0,0 h -10.209 c -0.345,-0.002 -0.642,-0.241 -0.717,-0.577 l -1.657,-7.484 c -0.141,-0.669 0.287,-1.328 0.957,-1.469 0.09,-0.02 0.181,-0.029 0.273,-0.028 3.303,0.054 5.708,0.257 9.856,0.257 2.555,0 10.263,-0.267 13.79,-0.267 3.528,0 3.988,3.485 2.545,3.805 C 8.359,-4.352 3.485,-2.395 1.411,-0.535 1.026,-0.182 0.521,0.01 0,0" /></g><g
           transform="translate(171.8452,187.7256)"
           id="g622"><path
             id="path624"
             style="fill:#1a2e35;fill-opacity:1;fill-rule:nonzero;stroke:none"
             d="M 0,0 C 0.081,0.681 0.163,1.397 0.245,2.192 1.281,12.434 2.339,24.724 3.28,36.569 6.735,27.281 8.226,14.231 10.021,0 H 31.03 c -1.732,36.837 -6.295,66.794 -8.71,79.57 h -44.6 C -22.334,74.992 -22.845,30.571 -23.991,0 Z" /></g><g
           id="g626"><g
             id="g628" /><g
             id="g640"><g
               style="opacity:0.19999701"
               id="g638"
               clip-path="url(#clipPath632)"><g
                 id="g636"
                 transform="translate(171.8452,187.7256)"><path
                   id="path634"
                   style="fill:#ffffff;fill-opacity:1;fill-rule:nonzero;stroke:none"
                   d="M 0,0 C 0.081,0.681 0.163,1.397 0.245,2.192 1.281,12.434 2.339,24.724 3.28,36.569 6.735,27.281 8.226,14.231 10.021,0 H 31.03 c -1.732,36.837 -6.295,66.794 -8.71,79.57 h -44.6 C -22.334,74.992 -22.845,30.571 -23.991,0 Z" /></g></g></g></g><g
           transform="translate(177.9697,358.5068)"
           id="g642"><path
             id="path644"
             style="fill:#fe8a7b;fill-opacity:1;fill-rule:nonzero;stroke:none"
             d="m 0,0 c -0.104,-0.408 -0.221,-0.807 -0.362,-1.189 -0.824,-2.308 -2.313,-4.208 -4.159,-5.54 -0.482,-0.352 -0.993,-0.666 -1.521,-0.94 -2.792,-1.437 -6.108,-1.706 -9.104,-0.403 -1.227,0.519 -2.414,1.316 -3.476,2.405 -4.211,4.252 -4.098,9.162 -4.573,17.473 -0.129,1.789 0.153,3.582 0.85,5.229 2.41,5.807 9.08,8.552 14.877,6.139 C 0.685,19.849 1.802,7.482 0,0" /></g><g
           id="g646"><g
             id="g648" /><g
             id="g660"><g
               style="opacity:0.19999701"
               id="g658"
               clip-path="url(#clipPath652)"><g
                 id="g656"
                 transform="translate(173.4492,351.7783)"><path
                   id="path654"
                   style="fill:#000000;fill-opacity:1;fill-rule:nonzero;stroke:none"
                   d="m 0,0 c -0.482,-0.353 -0.993,-0.667 -1.521,-0.94 -2.793,-1.438 -6.109,-1.706 -9.105,-0.403 0.584,1.606 1.485,2.821 1.485,2.821 0,0 4.967,0.765 9.141,-1.478" /></g></g></g></g><g
           transform="translate(156.7227,340.998)"
           id="g662"><path
             id="path664"
             style="fill:#fe8a7b;fill-opacity:1;fill-rule:nonzero;stroke:none"
             d="m 0,0 c 4.094,-3.72 14.125,-2.345 14.125,-2.345 0,0 6.261,1.714 4.946,3.671 -3.688,0.609 -5.473,2.33 -6.211,4.532 -0.427,1.283 -0.491,2.726 -0.374,4.212 0.054,0.781 0.171,1.572 0.31,2.352 l -12.4,9.183 C 2.021,15.543 4.009,4.394 0,0" /></g><g
           transform="translate(173.4492,366.0747)"
           id="g666"><path
             id="path668"
             style="fill:#1a2e35;fill-opacity:1;fill-rule:nonzero;stroke:none"
             d="M 0,0 1.792,-0.678 0.896,2.987 c 0,0 2.628,3.947 0,7.471 0,0 7.243,2.199 3.152,6.024 -1.522,1.422 -3.412,0 -8.405,2.178 -2.711,1.182 -11.19,1.275 -11.613,-2.178 0,0 -6.108,0.038 -6.766,-10.394 -0.66,-10.431 6.468,-16.438 6.468,-16.438 0,0 7.374,-1.747 10.955,1.214 C -1.732,-6.176 0,0 0,0" /></g><g
           transform="translate(168.7256,365.48)"
           id="g670"><path
             id="path672"
             style="fill:#fe8a7b;fill-opacity:1;fill-rule:nonzero;stroke:none"
             d="M 0,0 C 0.497,-1.809 1.492,-3.137 2.767,-3.693 4.459,-4.411 5.57,-2.026 5.326,0.473 5.095,2.688 3.948,5.805 2.136,5.394 0.324,4.982 -0.59,2.235 0,0" /></g><g
           id="g674"><g
             id="g676" /><g
             id="g688"><g
               style="opacity:0.19999701"
               id="g686"
               clip-path="url(#clipPath680)"><g
                 id="g684"
                 transform="translate(175.1255,224.3428)"><path
                   id="path682"
                   style="fill:#000000;fill-opacity:1;fill-rule:nonzero;stroke:none"
                   d="m 0,0 c -0.941,-11.845 -1.999,-24.16 -3.036,-34.401 -1.518,14.785 -3.378,25.325 -3.378,25.325 0,0 -1.743,1.432 -6.532,9.076 -4.789,7.654 0,21.915 0,21.915 C -13.095,8.659 0,0 0,0" /></g></g></g></g><g
           transform="translate(204.3848,189.4639)"
           id="g690"><path
             id="path692"
             style="fill:#007cff;fill-opacity:1;fill-rule:nonzero;stroke:none"
             d="m 0,0 -0.923,-3.475 h -22.359 v 3.207 z" /></g><g
           transform="translate(172.9341,188.9805)"
           id="g694"><path
             id="path696"
             style="fill:#007cff;fill-opacity:1;fill-rule:nonzero;stroke:none"
             d="M 0,0 -0.669,-3.207 H -25.991 L -27.521,0 Z" /></g><g
           transform="translate(176.0483,343.4077)"
           id="g698"><path
             id="path700"
             style="fill:#007cff;fill-opacity:1;fill-rule:nonzero;stroke:none"
             d="m 0,0 c 0,0 -3.638,5.754 -12.812,6.167 -9.175,0.412 -9.865,-5.906 -9.865,-5.906 z" /></g><g
           id="g702"><g
             id="g704" /><g
             id="g716"><g
               style="opacity:0.5"
               id="g714"
               clip-path="url(#clipPath708)"><g
                 id="g712"
                 transform="translate(176.0483,343.4077)"><path
                   id="path710"
                   style="fill:#ffffff;fill-opacity:1;fill-rule:nonzero;stroke:none"
                   d="m 0,0 c 0,0 -3.638,5.754 -12.812,6.167 -9.175,0.412 -9.865,-5.906 -9.865,-5.906 z" /></g></g></g></g><g
           transform="translate(143.1211,346.9614)"
           id="g718"><path
             id="path720"
             style="fill:#007cff;fill-opacity:1;fill-rule:nonzero;stroke:none"
             d="m 0,0 c 0,0 4.733,-42.71 -0.956,-93.534 l 53.729,3.278 c -0.608,54.839 -7.95,89.372 -7.95,89.372 0,0 -13.859,-2.904 -25.121,-2.484 C 9.096,-2.973 0,0 0,0" /></g><g
           transform="translate(187.9438,346.0776)"
           id="g722"><path
             id="path724"
             style="fill:#007cff;fill-opacity:1;fill-rule:nonzero;stroke:none"
             d="m 0,0 c 0,0 7.175,-16.776 7.951,-33.762 0.776,-16.986 -29.167,-40.272 -29.167,-40.272 0,0 -23.069,15.879 -40.871,14.44 -17.802,-1.44 -23.34,-7.769 -23.34,-7.769 0,0 13.846,29.606 37.947,39.927 0,0 -5.001,17.051 2.657,28.32 0,0 16.659,-5.418 44.823,-0.884" /></g><g
           id="g726"><g
             id="g728" /><g
             id="g740"><g
               style="opacity:0.60000598"
               id="g738"
               clip-path="url(#clipPath732)"><g
                 id="g736"
                 transform="translate(195.8901,312.3198)"><path
                   id="path734"
                   style="fill:#ffffff;fill-opacity:1;fill-rule:nonzero;stroke:none"
                   d="M 0,0 C 0.02,-0.47 0.02,-0.95 -0.01,-1.44 -0.05,-2.17 -0.14,-2.91 -0.28,-3.65 -0.57,-5.3 -1.1,-6.99 -1.81,-8.69 V -8.7 c -1.84,-4.39 -4.88,-8.86 -8.28,-13.01 -1.7,-2.08 -3.5,-4.08 -5.28,-5.94 -7.01,-7.36 -13.79,-12.63 -13.79,-12.63 0,0 -8.54,5.88 -19.23,10.15 -2.05,0.82 -4.18,1.59 -6.35,2.24 h -0.01 c -5.1,1.53 -10.39,2.45 -15.28,2.05 -6.25,-0.51 -10.99,-1.61 -14.51,-2.84 -0.81,-0.28 -1.56,-0.58 -2.25,-0.87 -0.21,-0.09 -0.42,-0.18 -0.62,-0.27 -1.93,-0.86 -3.33,-1.71 -4.28,-2.39 -0.15,-0.1 -0.29,-0.21 -0.42,-0.31 -0.26,-0.19 -0.47,-0.36 -0.65,-0.52 -0.09,-0.07 -0.17,-0.14 -0.24,-0.21 -0.07,-0.05 -0.12,-0.11 -0.17,-0.16 l -0.12,-0.12 -0.07,-0.07 c 0.02,0.05 0.12,0.26 0.3,0.62 0.08,0.15 0.17,0.34 0.28,0.55 0.28,0.56 0.67,1.31 1.18,2.22 0.07,0.13 0.14,0.26 0.22,0.4 0.12,0.22 0.25,0.45 0.39,0.69 0.13,0.24 0.27,0.49 0.42,0.74 0.58,1.02 1.26,2.16 2.03,3.39 3.27,5.24 8.16,12.1 14.5,18.34 l 0.01,0.01 c 1.95,1.93 4.02,3.78 6.24,5.51 3.75,2.94 7.88,5.53 12.36,7.45 0,0 -1.78,6.07 -1.58,13.37 0.03,1.39 0.14,2.83 0.35,4.27 0.52,3.68 1.68,7.42 3.89,10.68 0,0 2.61,-0.85 7.5,-1.59 2.68,-0.41 6.04,-0.78 10.03,-0.97 5.55,-0.27 12.32,-0.17 20.18,0.71 2.28,0.25 4.65,0.57 7.11,0.97 0,0 0.08,-0.19 0.23,-0.56 0.62,-1.53 2.41,-6.11 4.11,-12.21 0.44,-1.59 0.88,-3.29 1.3,-5.07 0.38,-1.65 0.74,-3.37 1.06,-5.14 V 10.77 C -0.63,7.3 -0.17,3.66 0,0" /></g></g></g></g><g
           id="g742"><g
             id="g744" /><g
             id="g808"><g
               style="opacity:0.19999701"
               id="g806"
               clip-path="url(#clipPath748)"><g
                 id="g752"
                 transform="translate(188.96,298.6899)"><path
                   id="path750"
                   style="fill:#ffffff;fill-opacity:1;fill-rule:nonzero;stroke:none"
                   d="m 0,0 -3.16,-8.08 c -1.7,-2.08 -3.5,-4.08 -5.28,-5.94 l -6.43,12.04 z" /></g><g
                 id="g756"
                 transform="translate(134.5601,306.4102)"><path
                   id="path754"
                   style="fill:#ffffff;fill-opacity:1;fill-rule:nonzero;stroke:none"
                   d="m 0,0 -12.7,-0.73 c 1.95,1.93 4.02,3.78 6.24,5.51 z" /></g><g
                 id="g760"
                 transform="translate(149.21,338.3999)"><path
                   id="path758"
                   style="fill:#ffffff;fill-opacity:1;fill-rule:nonzero;stroke:none"
                   d="m 0,0 -1.36,-13.2 -8.97,6.81 c 0.03,1.39 0.14,2.83 0.35,4.27 z" /></g><g
                 id="g764"
                 transform="translate(153.3711,303.624)"><path
                   id="path762"
                   style="fill:#ffffff;fill-opacity:1;fill-rule:nonzero;stroke:none"
                   d="M 0,0 -4.158,12.673 8.486,15.018 Z" /></g><g
                 id="g768"
                 transform="translate(175.1255,315.7031)"><path
                   id="path766"
                   style="fill:#ffffff;fill-opacity:1;fill-rule:nonzero;stroke:none"
                   d="M 0,0 V -9.494 L 9.083,-6.23 Z" /></g><g
                 id="g772"
                 transform="translate(151.77,288.21)"><path
                   id="path770"
                   style="fill:#ffffff;fill-opacity:1;fill-rule:nonzero;stroke:none"
                   d="m 0,0 -4.27,-6.02 c -2.05,0.82 -4.18,1.59 -6.35,2.24 h -0.01 l -3.22,7.34 z" /></g><g
                 id="g776"
                 transform="translate(119.3296,297.3076)"><path
                   id="path774"
                   style="fill:#ffffff;fill-opacity:1;fill-rule:nonzero;stroke:none"
                   d="M 0,0 6.527,-2.769 0,-7.22 Z" /></g><g
                 id="g780"
                 transform="translate(111.3501,283.6401)"><path
                   id="path778"
                   style="fill:#ffffff;fill-opacity:1;fill-rule:nonzero;stroke:none"
                   d="m 0,0 c -6.5,-2.27 -8.83,-4.93 -8.83,-4.93 0,0 1.66,3.55 4.83,8.62 z" /></g><g
                 id="g784"
                 transform="translate(164.7095,295.9233)"><path
                   id="path782"
                   style="fill:#ffffff;fill-opacity:1;fill-rule:nonzero;stroke:none"
                   d="M 0,0 -5.622,-5.835 2.879,-7.319 Z" /></g><g
                 id="g788"
                 transform="translate(164.7095,332.5166)"><path
                   id="path786"
                   style="fill:#ffffff;fill-opacity:1;fill-rule:nonzero;stroke:none"
                   d="M 0,0 6.607,-8.901 11.339,1.187 Z" /></g><g
                 id="g792"
                 transform="translate(194.6401,323.1001)"><path
                   id="path790"
                   style="fill:#ffffff;fill-opacity:1;fill-rule:nonzero;stroke:none"
                   d="m 0,0 -8.45,5.56 6.09,4.65 C -1.5,7.13 -0.66,3.66 0,0" /></g><g
                 id="g796"
                 transform="translate(195.8799,310.8799)"><path
                   id="path794"
                   style="fill:#ffffff;fill-opacity:1;fill-rule:nonzero;stroke:none"
                   d="M 0,0 C -0.12,-2.34 -0.77,-4.78 -1.8,-7.25 L -5.34,1.46 Z" /></g><g
                 id="g800"
                 transform="translate(188.1699,345.52)"><path
                   id="path798"
                   style="fill:#ffffff;fill-opacity:1;fill-rule:nonzero;stroke:none"
                   d="m 0,0 -5.35,-5.49 -1.99,5.08 c 2.28,0.25 4.65,0.57 7.11,0.97 0,0 0.08,-0.19 0.23,-0.56" /></g><g
                 id="g804"
                 transform="translate(160.6499,344.3999)"><path
                   id="path802"
                   style="fill:#ffffff;fill-opacity:1;fill-rule:nonzero;stroke:none"
                   d="m 0,0 -3.93,-8.32 -6.1,9.29 C -7.35,0.56 -3.99,0.19 0,0" /></g></g></g></g><g
           id="g810"><g
             id="g812" /><g
             id="g824"><g
               style="opacity:0.19999701"
               id="g822"
               clip-path="url(#clipPath816)"><g
                 id="g820"
                 transform="translate(195.8901,312.3198)"><path
                   id="path818"
                   style="fill:#000000;fill-opacity:1;fill-rule:nonzero;stroke:none"
                   d="m 0,0 c 0.02,-0.47 0.02,-0.95 -0.01,-1.44 -0.04,-0.73 -0.13,-1.47 -0.27,-2.21 -6.98,11.1 -5.34,21.14 -5.34,21.14 l 3.31,-1.57 c 0.38,-1.65 0.74,-3.37 1.06,-5.14 V 10.77 C -0.63,7.3 -0.17,3.66 0,0" /></g></g></g></g><g
           transform="translate(167.5273,390.2749)"
           id="g826"><path
             id="path828"
             style="fill:#007cff;fill-opacity:1;fill-rule:nonzero;stroke:none"
             d="M 0,0 C 11.868,4.088 14.849,-11.722 3.061,-22.41 -8.727,-33.099 -22.265,-34.377 -23.804,-28.991 -25.342,-23.604 -18.114,-6.239 0,0" /></g><g
           transform="translate(155.6348,391.0659)"
           id="g830"><path
             id="path832"
             style="fill:#007cff;fill-opacity:1;fill-rule:nonzero;stroke:none"
             d="m 0,0 c 6.09,0.025 14.744,-6.198 14.744,-6.198 0,0 1.236,-6.593 -4.829,-12.395 -6.066,-5.803 -11.529,-6.726 -14.93,-4.484 -3.4,2.242 -4.323,10.976 -4.323,10.976 0,0 0.866,3.398 4.323,4.453 0,0 1,7.631 5.015,7.648" /></g><g
           id="g834"><g
             id="g836" /><g
             id="g848"><g
               style="opacity:0.19999701"
               id="g846"
               clip-path="url(#clipPath840)"><g
                 id="g844"
                 transform="translate(165.5498,372.4702)"><path
                   id="path842"
                   style="fill:#000000;fill-opacity:1;fill-rule:nonzero;stroke:none"
                   d="m 0,0 c -6.07,-5.8 -11.53,-6.72 -14.93,-4.48 -0.56,0.37 -1.049,0.91 -1.48,1.56 -2.2,3.31 -2.84,9.42 -2.84,9.42 5.8,-6.96 12.521,0.23 13.45,5.11 0.52,2.77 -0.19,5.24 -1.55,6.69 C -3.36,17.44 1.03,14.88 3.291,13.43 4.25,12.82 4.83,12.4 4.83,12.4 4.83,12.4 6.07,5.8 0,0" /></g></g></g></g><g
           id="g850"><g
             id="g852" /><g
             id="g864"><g
               style="opacity:0.60000598"
               id="g862"
               clip-path="url(#clipPath856)"><g
                 id="g860"
                 transform="translate(165.5498,372.4702)"><path
                   id="path858"
                   style="fill:#ffffff;fill-opacity:1;fill-rule:nonzero;stroke:none"
                   d="m 0,0 c -6.07,-5.8 -11.53,-6.72 -14.93,-4.48 -0.56,0.37 -1.049,0.91 -1.48,1.56 6.08,-1.81 13.32,1.2 17.21,6.61 2.55,3.55 2.83,7.1 2.491,9.74 C 4.25,12.82 4.83,12.4 4.83,12.4 4.83,12.4 6.07,5.8 0,0" /></g></g></g></g><g
           transform="translate(187.9399,346.0801)"
           id="g866"><path
             id="path868"
             style="fill:#007cff;fill-opacity:1;fill-rule:nonzero;stroke:none"
             d="M 0,0 C 0,0 -4.693,-9.476 6.7,-24.509 L 31.807,-6.05 21.785,12.101 Z" /></g><g
           id="g870"><g
             id="g872" /><g
             id="g884"><g
               style="opacity:0.60000598"
               id="g882"
               clip-path="url(#clipPath876)"><g
                 id="g880"
                 transform="translate(219.75,340.0298)"><path
                   id="path878"
                   style="fill:#ffffff;fill-opacity:1;fill-rule:nonzero;stroke:none"
                   d="m 0,0 -6.55,-4.81 -9.69,-7.13 -8.87,-6.52 c -0.58,0.76 -1.11,1.51 -1.61,2.24 -1.1,1.62 -2.01,3.17 -2.76,4.64 -2.56,5 -3.27,9.1 -3.29,12.08 -0.02,3.58 0.96,5.55 0.96,5.55 l 5.58,3.1 9.61,5.33 4.22,2.35 2.38,1.32 z" /></g></g></g></g><g
           id="g886"><g
             id="g888" /><g
             id="g912"><g
               style="opacity:0.19999701"
               id="g910"
               clip-path="url(#clipPath892)"><g
                 id="g896"
                 transform="translate(213.2002,335.2202)"><path
                   id="path894"
                   style="fill:#ffffff;fill-opacity:1;fill-rule:nonzero;stroke:none"
                   d="m 0,0 -9.69,-7.13 -4.27,9.5 z" /></g><g
                 id="g900"
                 transform="translate(212.2998,350.5)"><path
                   id="path898"
                   style="fill:#ffffff;fill-opacity:1;fill-rule:nonzero;stroke:none"
                   d="m 0,0 -8.94,-3.54 -0.23,7.55 4.22,2.35 z" /></g><g
                 id="g904"
                 transform="translate(196.7202,343.0601)"><path
                   id="path902"
                   style="fill:#ffffff;fill-opacity:1;fill-rule:nonzero;stroke:none"
                   d="m 0,0 -9.74,-2.53 c -0.02,3.58 0.96,5.55 0.96,5.55 l 5.58,3.1 z" /></g><g
                 id="g908"
                 transform="translate(194.6401,330.9302)"><path
                   id="path906"
                   style="fill:#ffffff;fill-opacity:1;fill-rule:nonzero;stroke:none"
                   d="m 0,0 -1.61,-7.12 c -1.1,1.62 -2.01,3.17 -2.76,4.64 z" /></g></g></g></g></g></g><g
       transform="translate(255.0571,177.0068)"
       id="g914"><path
         id="path916"
         style="fill:none;stroke:#1a2e35;stroke-width:3;stroke-linecap:butt;stroke-linejoin:miter;stroke-miterlimit:10;stroke-dasharray:none;stroke-opacity:1"
         d="M 0,0 -12.495,0.979 -7.629,63.1 4.866,62.121 Z" /></g><g
       id="g918"><g
         clip-path="url(#clipPath924)"
         id="g920"><g
           transform="translate(245.7695,91.458)"
           id="g926"><path
             id="path928"
             style="fill:#1a2e35;fill-opacity:1;fill-rule:nonzero;stroke:none"
             d="M 0,0 C 0.345,-0.027 1.642,-0.129 1.986,-0.155 4.219,-0.33 5.893,-2.209 5.718,-4.442 5.543,-6.675 3.597,-8.271 1.364,-8.096 1.02,-8.068 -0.277,-7.967 -0.622,-7.94 -2.855,-7.765 -4.529,-5.886 -4.354,-3.653 -4.179,-1.42 -2.233,0.175 0,0" /></g><g
           id="g930"><g
             id="g932" /><g
             id="g944"><g
               style="opacity:0.10000598"
               id="g942"
               clip-path="url(#clipPath936)"><g
                 id="g940"
                 transform="translate(241.4209,87.8779)"><path
                   id="path938"
                   style="fill:#ffffff;fill-opacity:1;fill-rule:nonzero;stroke:none"
                   d="M 0,0 C -0.175,-2.233 1.494,-4.185 3.727,-4.36 5.959,-4.535 7.912,-2.866 8.086,-0.634 8.261,1.6 6.593,3.552 4.36,3.727 2.127,3.901 0.175,2.232 0,0" /></g></g></g></g><g
           transform="translate(234.8516,92.3135)"
           id="g946"><path
             id="path948"
             style="fill:#1a2e35;fill-opacity:1;fill-rule:nonzero;stroke:none"
             d="M 0,0 C 0.345,-0.027 1.642,-0.129 1.986,-0.156 4.219,-0.331 5.894,-2.21 5.719,-4.442 5.543,-6.676 3.598,-8.271 1.365,-8.096 1.02,-8.069 -0.277,-7.967 -0.622,-7.94 -2.854,-7.766 -4.529,-5.887 -4.354,-3.653 -4.179,-1.421 -2.232,0.175 0,0" /></g><g
           id="g950"><g
             id="g952" /><g
             id="g964"><g
               style="opacity:0.19999701"
               id="g962"
               clip-path="url(#clipPath956)"><g
                 id="g960"
                 transform="translate(230.5034,88.7334)"><path
                   id="path958"
                   style="fill:#ffffff;fill-opacity:1;fill-rule:nonzero;stroke:none"
                   d="M 0,0 C -0.175,-2.233 1.494,-4.186 3.727,-4.36 5.959,-4.535 7.911,-2.866 8.086,-0.634 8.261,1.6 6.593,3.551 4.36,3.726 2.127,3.901 0.175,2.232 0,0" /></g></g></g></g><g
           transform="translate(233.0322,91.1133)"
           id="g966"><path
             id="path968"
             style="fill:#1a2e35;fill-opacity:1;fill-rule:nonzero;stroke:none"
             d="m 0,0 15.467,-1.211 c 1.483,-0.116 2.78,0.992 2.895,2.475 l 7.367,94.034 c 0.116,1.483 -0.993,2.78 -2.476,2.896 L 7.787,99.405 C 6.304,99.521 5.007,98.413 4.891,96.931 L -2.475,2.896 C -2.591,1.413 -1.483,0.116 0,0" /></g><g
           id="g970"><g
             id="g972" /><g
             id="g984"><g
               style="opacity:0.19999701"
               id="g982"
               clip-path="url(#clipPath976)"><g
                 id="g980"
                 transform="translate(240.748,90.5088)"><path
                   id="path978"
                   style="fill:#ffffff;fill-opacity:1;fill-rule:nonzero;stroke:none"
                   d="m 0,0 7.751,-0.606 c 1.483,-0.117 2.78,0.992 2.895,2.474 l 7.367,94.034 c 0.116,1.484 -0.992,2.781 -2.475,2.897 L 7.787,99.405 C 6.303,99.521 5.007,98.414 4.891,96.931 L -2.475,2.896 C -2.591,1.413 -1.483,0.116 0,0" /></g></g></g></g><g
           transform="translate(247.1318,238.2568)"
           id="g986"><path
             id="path988"
             style="fill:#1a2e35;fill-opacity:1;fill-rule:nonzero;stroke:none"
             d="m 0,0 13.009,-1.019 c 1.101,-0.085 2.064,0.737 2.15,1.838 l 0.096,1.223 c 0.086,1.102 -0.736,2.064 -1.838,2.15 L 0.408,5.211 C -0.693,5.298 -1.656,4.475 -1.742,3.373 L -1.838,2.15 C -1.924,1.05 -1.101,0.087 0,0" /></g><g
           id="g990"><g
             id="g992" /><g
             id="g1004"><g
               style="opacity:0.19999701"
               id="g1002"
               clip-path="url(#clipPath996)"><g
                 id="g1000"
                 transform="translate(247.1318,238.2568)"><path
                   id="path998"
                   style="fill:#ffffff;fill-opacity:1;fill-rule:nonzero;stroke:none"
                   d="m 0,0 13.009,-1.019 c 1.101,-0.085 2.064,0.737 2.15,1.838 l 0.096,1.223 c 0.086,1.102 -0.736,2.064 -1.838,2.15 L 0.408,5.211 C -0.693,5.298 -1.656,4.475 -1.742,3.373 L -1.838,2.15 C -1.924,1.05 -1.101,0.087 0,0" /></g></g></g></g><g
           id="g1006"><g
             id="g1008" /><g
             id="g1020"><g
               style="opacity:0.19999701"
               id="g1018"
               clip-path="url(#clipPath1012)"><g
                 id="g1016"
                 transform="translate(247.1318,238.2568)"><path
                   id="path1014"
                   style="fill:#000000;fill-opacity:1;fill-rule:nonzero;stroke:none"
                   d="m 0,0 1.091,-0.085 c 1.101,-0.086 2.064,0.736 2.15,1.838 L 3.337,2.976 C 3.423,4.077 2.601,5.039 1.5,5.126 L 0.408,5.211 C -0.693,5.298 -1.656,4.475 -1.742,3.373 L -1.838,2.15 C -1.924,1.05 -1.101,0.087 0,0" /></g></g></g></g><g
           transform="translate(287.5396,179.3584)"
           id="g1022"><path
             id="path1024"
             style="fill:#007cff;fill-opacity:1;fill-rule:nonzero;stroke:none"
             d="m 0,0 -6.655,-84.963 c -0.244,-3.12 -2.983,-5.46 -6.103,-5.216 l -31.041,2.432 c -2.189,0.172 -3.827,2.101 -3.655,4.289 l 6.918,88.324 c 0.173,2.201 2.09,3.84 4.279,3.668 L -5.216,6.103 C -2.096,5.858 0.245,3.12 0,0" /></g><g
           id="g1026"><g
             id="g1028" /><g
             id="g1040"><g
               style="opacity:0.19999701"
               id="g1038"
               clip-path="url(#clipPath1032)"><g
                 id="g1036"
                 transform="translate(287.5396,179.3584)"><path
                   id="path1034"
                   style="fill:#ffffff;fill-opacity:1;fill-rule:nonzero;stroke:none"
                   d="m 0,0 -6.655,-84.963 c -0.244,-3.12 -2.983,-5.46 -6.103,-5.216 l -31.041,2.432 c -2.189,0.172 -3.827,2.101 -3.655,4.289 l 6.918,88.324 c 0.173,2.201 2.09,3.84 4.279,3.668 L -5.216,6.103 C -2.096,5.858 0.245,3.12 0,0" /></g></g></g></g><g
           id="g1042"><g
             id="g1044" /><g
             id="g1056"><g
               style="opacity:0.19999701"
               id="g1054"
               clip-path="url(#clipPath1048)"><g
                 id="g1052"
                 transform="translate(266.2202,186.7197)"><path
                   id="path1050"
                   style="fill:#000000;fill-opacity:1;fill-rule:nonzero;stroke:none"
                   d="m 0,0 -0.01,-0.12 -1.11,0.091 C -3.31,0.141 -5.22,-1.5 -5.4,-3.7 l -6.92,-88.34 c -0.14,-1.859 1.029,-3.52 2.73,-4.08 l -12.89,1.011 c -2.18,0.17 -3.83,2.099 -3.66,4.279 l 6.92,88.33 c 0.179,2.21 2.09,3.84 4.28,3.67 z" /></g></g></g></g><g
           id="g1058"><g
             id="g1060" /><g
             id="g1072"><g
               style="opacity:0.19999701"
               id="g1070"
               clip-path="url(#clipPath1064)"><g
                 id="g1068"
                 transform="translate(259.0063,94.8438)"><path
                   id="path1066"
                   style="fill:#000000;fill-opacity:1;fill-rule:nonzero;stroke:none"
                   d="m 0,0 -0.462,0.037 c -0.599,0.047 -1.046,0.57 -0.999,1.169 l 6.784,86.608 c 0.047,0.6 0.571,1.047 1.169,1 l 0.462,-0.036 c 0.599,-0.047 1.047,-0.57 1,-1.17 L 1.169,1 C 1.123,0.401 0.599,-0.047 0,0" /></g></g></g></g><g
           id="g1074"><g
             id="g1076" /><g
             id="g1088"><g
               style="opacity:0.19999701"
               id="g1086"
               clip-path="url(#clipPath1080)"><g
                 id="g1084"
                 transform="translate(265.21,93.9238)"><path
                   id="path1082"
                   style="fill:#000000;fill-opacity:1;fill-rule:nonzero;stroke:none"
                   d="m 0,0 -0.462,0.037 c -0.599,0.047 -1.046,0.57 -0.999,1.169 l 6.784,86.608 c 0.047,0.6 0.571,1.047 1.169,1 l 0.462,-0.036 c 0.599,-0.047 1.047,-0.57 1,-1.17 L 1.169,1 C 1.123,0.401 0.599,-0.047 0,0" /></g></g></g></g><g
           id="g1090"><g
             id="g1092" /><g
             id="g1104"><g
               style="opacity:0.19999701"
               id="g1102"
               clip-path="url(#clipPath1096)"><g
                 id="g1100"
                 transform="translate(271.4136,93.5615)"><path
                   id="path1098"
                   style="fill:#000000;fill-opacity:1;fill-rule:nonzero;stroke:none"
                   d="m 0,0 -0.462,0.036 c -0.599,0.047 -1.046,0.57 -0.999,1.17 l 6.784,86.608 c 0.047,0.599 0.571,1.046 1.169,0.999 l 0.462,-0.036 c 0.599,-0.047 1.047,-0.57 1,-1.17 L 1.17,0.999 C 1.123,0.4 0.599,-0.047 0,0" /></g></g></g></g><g
           id="g1106"><g
             id="g1108" /><g
             id="g1120"><g
               style="opacity:0.19999701"
               id="g1118"
               clip-path="url(#clipPath1112)"><g
                 id="g1116"
                 transform="translate(277.6172,93.1982)"><path
                   id="path1114"
                   style="fill:#000000;fill-opacity:1;fill-rule:nonzero;stroke:none"
                   d="m 0,0 -0.462,0.036 c -0.599,0.047 -1.046,0.571 -0.999,1.17 l 6.784,86.608 c 0.047,0.599 0.571,1.047 1.169,0.999 L 6.955,88.778 C 7.553,88.73 8.001,88.207 7.954,87.608 L 1.17,1 C 1.123,0.4 0.599,-0.047 0,0" /></g></g></g></g></g></g></g></svg>